%TF.GenerationSoftware,KiCad,Pcbnew,9.0.0*%
%TF.CreationDate,2025-02-26T11:53:00+01:00*%
%TF.ProjectId,game,67616d65-2e6b-4696-9361-645f70636258,rev?*%
%TF.SameCoordinates,Original*%
%TF.FileFunction,Copper,L2,Bot*%
%TF.FilePolarity,Positive*%
%FSLAX46Y46*%
G04 Gerber Fmt 4.6, Leading zero omitted, Abs format (unit mm)*
G04 Created by KiCad (PCBNEW 9.0.0) date 2025-02-26 11:53:00*
%MOMM*%
%LPD*%
G01*
G04 APERTURE LIST*
G04 Aperture macros list*
%AMRoundRect*
0 Rectangle with rounded corners*
0 $1 Rounding radius*
0 $2 $3 $4 $5 $6 $7 $8 $9 X,Y pos of 4 corners*
0 Add a 4 corners polygon primitive as box body*
4,1,4,$2,$3,$4,$5,$6,$7,$8,$9,$2,$3,0*
0 Add four circle primitives for the rounded corners*
1,1,$1+$1,$2,$3*
1,1,$1+$1,$4,$5*
1,1,$1+$1,$6,$7*
1,1,$1+$1,$8,$9*
0 Add four rect primitives between the rounded corners*
20,1,$1+$1,$2,$3,$4,$5,0*
20,1,$1+$1,$4,$5,$6,$7,0*
20,1,$1+$1,$6,$7,$8,$9,0*
20,1,$1+$1,$8,$9,$2,$3,0*%
G04 Aperture macros list end*
%TA.AperFunction,ComponentPad*%
%ADD10C,4.000000*%
%TD*%
%TA.AperFunction,ComponentPad*%
%ADD11C,1.600000*%
%TD*%
%TA.AperFunction,ComponentPad*%
%ADD12R,1.600000X1.600000*%
%TD*%
%TA.AperFunction,ComponentPad*%
%ADD13R,1.700000X1.700000*%
%TD*%
%TA.AperFunction,ComponentPad*%
%ADD14C,1.700000*%
%TD*%
%TA.AperFunction,ComponentPad*%
%ADD15RoundRect,0.250000X-0.550000X0.550000X-0.550000X-0.550000X0.550000X-0.550000X0.550000X0.550000X0*%
%TD*%
%TA.AperFunction,ComponentPad*%
%ADD16RoundRect,0.250000X0.550000X-0.550000X0.550000X0.550000X-0.550000X0.550000X-0.550000X-0.550000X0*%
%TD*%
%TA.AperFunction,ComponentPad*%
%ADD17O,3.000000X2.500000*%
%TD*%
%TA.AperFunction,ComponentPad*%
%ADD18C,1.400000*%
%TD*%
%TA.AperFunction,ComponentPad*%
%ADD19O,1.400000X1.400000*%
%TD*%
%TA.AperFunction,ComponentPad*%
%ADD20O,1.700000X1.700000*%
%TD*%
%TA.AperFunction,ComponentPad*%
%ADD21R,1.800000X1.800000*%
%TD*%
%TA.AperFunction,ComponentPad*%
%ADD22C,1.800000*%
%TD*%
%TA.AperFunction,ViaPad*%
%ADD23C,0.600000*%
%TD*%
%TA.AperFunction,Conductor*%
%ADD24C,0.200000*%
%TD*%
G04 APERTURE END LIST*
D10*
%TO.P,J5,5,Shield*%
%TO.N,GND*%
X155000000Y-150827500D03*
X143000000Y-150827500D03*
D11*
%TO.P,J5,4,GND*%
X147750000Y-153687500D03*
%TO.P,J5,3,D+*%
%TO.N,unconnected-(J5-D+-Pad3)*%
X150250000Y-153687500D03*
%TO.P,J5,2,D-*%
%TO.N,unconnected-(J5-D--Pad2)*%
X150250000Y-155687500D03*
D12*
%TO.P,J5,1,VBUS*%
%TO.N,+5V*%
X147750000Y-155687500D03*
%TD*%
D13*
%TO.P,U10,1,G*%
%TO.N,/G*%
X124517500Y-123747500D03*
D14*
%TO.P,U10,2,F*%
%TO.N,/F*%
X124517500Y-126287500D03*
%TO.P,U10,3,GND*%
%TO.N,/DIG5*%
X124517500Y-128827500D03*
%TO.P,U10,4,E*%
%TO.N,/E*%
X124517500Y-131367500D03*
%TO.P,U10,5,D*%
%TO.N,/D*%
X124517500Y-133907500D03*
%TO.P,U10,6,DP*%
%TO.N,/DP*%
X132137500Y-133907500D03*
%TO.P,U10,7,C*%
%TO.N,/C*%
X132137500Y-131367500D03*
%TO.P,U10,8,GND*%
%TO.N,/DIG5*%
X132137500Y-128827500D03*
%TO.P,U10,9,B*%
%TO.N,/B*%
X132137500Y-126287500D03*
%TO.P,U10,10,A*%
%TO.N,/A*%
X132137500Y-123747500D03*
%TD*%
D13*
%TO.P,U9,1,G*%
%TO.N,/G*%
X113180000Y-123760000D03*
D14*
%TO.P,U9,2,F*%
%TO.N,/F*%
X113180000Y-126300000D03*
%TO.P,U9,3,GND*%
%TO.N,/DIG4*%
X113180000Y-128840000D03*
%TO.P,U9,4,E*%
%TO.N,/E*%
X113180000Y-131380000D03*
%TO.P,U9,5,D*%
%TO.N,/D*%
X113180000Y-133920000D03*
%TO.P,U9,6,DP*%
%TO.N,/DP*%
X120800000Y-133920000D03*
%TO.P,U9,7,C*%
%TO.N,/C*%
X120800000Y-131380000D03*
%TO.P,U9,8,GND*%
%TO.N,/DIG4*%
X120800000Y-128840000D03*
%TO.P,U9,9,B*%
%TO.N,/B*%
X120800000Y-126300000D03*
%TO.P,U9,10,A*%
%TO.N,/A*%
X120800000Y-123760000D03*
%TD*%
D13*
%TO.P,U8,1,G*%
%TO.N,/G*%
X122152500Y-102117500D03*
D14*
%TO.P,U8,2,F*%
%TO.N,/F*%
X119612500Y-102117500D03*
%TO.P,U8,3,GND*%
%TO.N,/DIG3*%
X117072500Y-102117500D03*
%TO.P,U8,4,E*%
%TO.N,/E*%
X114532500Y-102117500D03*
%TO.P,U8,5,D*%
%TO.N,/D*%
X111992500Y-102117500D03*
%TO.P,U8,6,DP*%
%TO.N,/DP*%
X111992500Y-109737500D03*
%TO.P,U8,7,C*%
%TO.N,/C*%
X114532500Y-109737500D03*
%TO.P,U8,8,GND*%
%TO.N,/DIG3*%
X117072500Y-109737500D03*
%TO.P,U8,9,B*%
%TO.N,/B*%
X119612500Y-109737500D03*
%TO.P,U8,10,A*%
%TO.N,/A*%
X122152500Y-109737500D03*
%TD*%
D13*
%TO.P,U7,1,G*%
%TO.N,/G*%
X122152500Y-91217500D03*
D14*
%TO.P,U7,2,F*%
%TO.N,/F*%
X119612500Y-91217500D03*
%TO.P,U7,3,GND*%
%TO.N,/DIG2*%
X117072500Y-91217500D03*
%TO.P,U7,4,E*%
%TO.N,/E*%
X114532500Y-91217500D03*
%TO.P,U7,5,D*%
%TO.N,/D*%
X111992500Y-91217500D03*
%TO.P,U7,6,DP*%
%TO.N,/DP*%
X111992500Y-98837500D03*
%TO.P,U7,7,C*%
%TO.N,/C*%
X114532500Y-98837500D03*
%TO.P,U7,8,GND*%
%TO.N,/DIG2*%
X117072500Y-98837500D03*
%TO.P,U7,9,B*%
%TO.N,/B*%
X119612500Y-98837500D03*
%TO.P,U7,10,A*%
%TO.N,/A*%
X122152500Y-98837500D03*
%TD*%
D13*
%TO.P,U6,1,G*%
%TO.N,/G*%
X178147500Y-98682500D03*
D14*
%TO.P,U6,2,F*%
%TO.N,/F*%
X180687500Y-98682500D03*
%TO.P,U6,3,GND*%
%TO.N,/DIG1*%
X183227500Y-98682500D03*
%TO.P,U6,4,E*%
%TO.N,/E*%
X185767500Y-98682500D03*
%TO.P,U6,5,D*%
%TO.N,/D*%
X188307500Y-98682500D03*
%TO.P,U6,6,DP*%
%TO.N,/DP*%
X188307500Y-91062500D03*
%TO.P,U6,7,C*%
%TO.N,/C*%
X185767500Y-91062500D03*
%TO.P,U6,8,GND*%
%TO.N,/DIG1*%
X183227500Y-91062500D03*
%TO.P,U6,9,B*%
%TO.N,/B*%
X180687500Y-91062500D03*
%TO.P,U6,10,A*%
%TO.N,/A*%
X178147500Y-91062500D03*
%TD*%
D13*
%TO.P,U5,1,G*%
%TO.N,/G*%
X178147500Y-109582500D03*
D14*
%TO.P,U5,2,F*%
%TO.N,/F*%
X180687500Y-109582500D03*
%TO.P,U5,3,GND*%
%TO.N,/DIG0*%
X183227500Y-109582500D03*
%TO.P,U5,4,E*%
%TO.N,/E*%
X185767500Y-109582500D03*
%TO.P,U5,5,D*%
%TO.N,/D*%
X188307500Y-109582500D03*
%TO.P,U5,6,DP*%
%TO.N,/DP*%
X188307500Y-101962500D03*
%TO.P,U5,7,C*%
%TO.N,/C*%
X185767500Y-101962500D03*
%TO.P,U5,8,GND*%
%TO.N,/DIG0*%
X183227500Y-101962500D03*
%TO.P,U5,9,B*%
%TO.N,/B*%
X180687500Y-101962500D03*
%TO.P,U5,10,A*%
%TO.N,/A*%
X178147500Y-101962500D03*
%TD*%
D15*
%TO.P,U2,1,~{RESET}/PC6*%
%TO.N,unconnected-(U2-~{RESET}{slash}PC6-Pad1)*%
X138260000Y-143195000D03*
D11*
%TO.P,U2,2,PD0*%
%TO.N,/PD0*%
X135720000Y-143195000D03*
%TO.P,U2,3,PD1*%
%TO.N,/PD1*%
X133180000Y-143195000D03*
%TO.P,U2,4,PD2*%
%TO.N,/PD2*%
X130640000Y-143195000D03*
%TO.P,U2,5,PD3*%
%TO.N,/PD3*%
X128100000Y-143195000D03*
%TO.P,U2,6,PD4*%
%TO.N,/PD4*%
X125560000Y-143195000D03*
%TO.P,U2,7,VCC*%
%TO.N,+5V*%
X123020000Y-143195000D03*
%TO.P,U2,8,GND*%
%TO.N,GND*%
X120480000Y-143195000D03*
%TO.P,U2,9,XTAL1/PB6*%
%TO.N,unconnected-(U2-XTAL1{slash}PB6-Pad9)*%
X117940000Y-143195000D03*
%TO.P,U2,10,XTAL2/PB7*%
%TO.N,unconnected-(U2-XTAL2{slash}PB7-Pad10)*%
X115400000Y-143195000D03*
%TO.P,U2,11,PD5*%
%TO.N,/PD5*%
X112860000Y-143195000D03*
%TO.P,U2,12,PD6*%
%TO.N,/PD6*%
X110320000Y-143195000D03*
%TO.P,U2,13,PD7*%
%TO.N,/PD7*%
X107780000Y-143195000D03*
%TO.P,U2,14,PB0*%
%TO.N,/PB0*%
X105240000Y-143195000D03*
%TO.P,U2,15,PB1*%
%TO.N,/PB1*%
X105240000Y-150815000D03*
%TO.P,U2,16,PB2*%
%TO.N,/LOAD*%
X107780000Y-150815000D03*
%TO.P,U2,17,PB3*%
%TO.N,MOSI*%
X110320000Y-150815000D03*
%TO.P,U2,18,PB4*%
%TO.N,MISO*%
X112860000Y-150815000D03*
%TO.P,U2,19,PB5*%
%TO.N,SCK*%
X115400000Y-150815000D03*
%TO.P,U2,20,AVCC*%
%TO.N,unconnected-(U2-AVCC-Pad20)*%
X117940000Y-150815000D03*
%TO.P,U2,21,AREF*%
%TO.N,unconnected-(U2-AREF-Pad21)*%
X120480000Y-150815000D03*
%TO.P,U2,22,GND*%
%TO.N,GND*%
X123020000Y-150815000D03*
%TO.P,U2,23,PC0*%
%TO.N,+5V*%
X125560000Y-150815000D03*
%TO.P,U2,24,PC1*%
%TO.N,unconnected-(U2-PC1-Pad24)*%
X128100000Y-150815000D03*
%TO.P,U2,25,PC2*%
%TO.N,unconnected-(U2-PC2-Pad25)*%
X130640000Y-150815000D03*
%TO.P,U2,26,PC3*%
%TO.N,unconnected-(U2-PC3-Pad26)*%
X133180000Y-150815000D03*
%TO.P,U2,27,PC4*%
%TO.N,unconnected-(U2-PC4-Pad27)*%
X135720000Y-150815000D03*
%TO.P,U2,28,PC5*%
%TO.N,unconnected-(U2-PC5-Pad28)*%
X138260000Y-150815000D03*
%TD*%
D16*
%TO.P,U1,1,DIN*%
%TO.N,MOSI*%
X160780000Y-151500000D03*
D11*
%TO.P,U1,2,DIG_0*%
%TO.N,/DIG0*%
X163320000Y-151500000D03*
%TO.P,U1,3,DIG_4*%
%TO.N,/DIG4*%
X165860000Y-151500000D03*
%TO.P,U1,4,GND*%
%TO.N,GND*%
X168400000Y-151500000D03*
%TO.P,U1,5,DIG_6*%
%TO.N,/DIG6*%
X170940000Y-151500000D03*
%TO.P,U1,6,DIG_2*%
%TO.N,/DIG2*%
X173480000Y-151500000D03*
%TO.P,U1,7,DIG_3*%
%TO.N,/DIG3*%
X176020000Y-151500000D03*
%TO.P,U1,8,DIG_7*%
%TO.N,/DIG7*%
X178560000Y-151500000D03*
%TO.P,U1,9,GND*%
%TO.N,GND*%
X181100000Y-151500000D03*
%TO.P,U1,10,DIG_5*%
%TO.N,/DIG5*%
X183640000Y-151500000D03*
%TO.P,U1,11,DIG_1*%
%TO.N,/DIG1*%
X186180000Y-151500000D03*
%TO.P,U1,12,LOAD*%
%TO.N,/LOAD*%
X188720000Y-151500000D03*
%TO.P,U1,13,CLK*%
%TO.N,SCK*%
X191260000Y-151500000D03*
%TO.P,U1,14,SEG_A*%
%TO.N,/A*%
X193800000Y-151500000D03*
%TO.P,U1,15,SEG_F*%
%TO.N,/F*%
X193800000Y-143880000D03*
%TO.P,U1,16,SEG_B*%
%TO.N,/B*%
X191260000Y-143880000D03*
%TO.P,U1,17,SEG_G*%
%TO.N,/G*%
X188720000Y-143880000D03*
%TO.P,U1,18,ISET*%
%TO.N,Net-(U1-ISET)*%
X186180000Y-143880000D03*
%TO.P,U1,19,V+*%
%TO.N,+5V*%
X183640000Y-143880000D03*
%TO.P,U1,20,SEG_C*%
%TO.N,/C*%
X181100000Y-143880000D03*
%TO.P,U1,21,SEG_E*%
%TO.N,/E*%
X178560000Y-143880000D03*
%TO.P,U1,22,SEG_DP*%
%TO.N,/DP*%
X176020000Y-143880000D03*
%TO.P,U1,23,SEG_D*%
%TO.N,/D*%
X173480000Y-143880000D03*
%TO.P,U1,24,DOUT*%
%TO.N,unconnected-(U1-DOUT-Pad24)*%
X170940000Y-143880000D03*
%TO.P,U1,25*%
%TO.N,N/C*%
X168400000Y-143880000D03*
%TO.P,U1,26*%
X165860000Y-143880000D03*
%TO.P,U1,27*%
X163320000Y-143880000D03*
%TO.P,U1,28*%
X160780000Y-143880000D03*
%TD*%
D17*
%TO.P,SW4,1,1*%
%TO.N,+5V*%
X162950000Y-130200000D03*
X175450000Y-130200000D03*
%TO.P,SW4,2,2*%
%TO.N,unconnected-(SW4-Pad2)*%
X162950000Y-135200000D03*
%TO.N,unconnected-(SW4-Pad2)_1*%
X175450000Y-135200000D03*
%TD*%
%TO.P,SW3,1,1*%
%TO.N,+5V*%
X142750000Y-120700000D03*
X155250000Y-120700000D03*
%TO.P,SW3,2,2*%
%TO.N,unconnected-(SW3-Pad2)*%
X142750000Y-125700000D03*
%TO.N,unconnected-(SW3-Pad2)_1*%
X155250000Y-125700000D03*
%TD*%
D18*
%TO.P,R3,1*%
%TO.N,/PB1*%
X144980000Y-137650000D03*
D19*
%TO.P,R3,2*%
%TO.N,GND*%
X152600000Y-137650000D03*
%TD*%
D18*
%TO.P,R2,1*%
%TO.N,/PB0*%
X144980000Y-134500000D03*
D19*
%TO.P,R2,2*%
%TO.N,GND*%
X152600000Y-134500000D03*
%TD*%
D18*
%TO.P,R1,1*%
%TO.N,GND*%
X144980000Y-131350000D03*
D19*
%TO.P,R1,2*%
%TO.N,Net-(U1-ISET)*%
X152600000Y-131350000D03*
%TD*%
D13*
%TO.P,J6,1,Pin_1*%
%TO.N,MISO*%
X182650000Y-131975000D03*
D20*
%TO.P,J6,2,Pin_2*%
%TO.N,+5V*%
X185190000Y-131975000D03*
%TO.P,J6,3,Pin_3*%
%TO.N,SCK*%
X182650000Y-134515000D03*
%TO.P,J6,4,Pin_4*%
%TO.N,MOSI*%
X185190000Y-134515000D03*
%TO.P,J6,5,Pin_5*%
%TO.N,Reset*%
X182650000Y-137055000D03*
%TO.P,J6,6,Pin_6*%
%TO.N,GND*%
X185190000Y-137055000D03*
%TD*%
D13*
%TO.P,J4,1,Pin_1*%
%TO.N,/PD4*%
X102500000Y-94420000D03*
D20*
%TO.P,J4,2,Pin_2*%
%TO.N,/PD5*%
X102500000Y-96960000D03*
%TO.P,J4,3,Pin_3*%
%TO.N,/PD6*%
X102500000Y-99500000D03*
%TO.P,J4,4,Pin_4*%
%TO.N,/PD7*%
X102500000Y-102040000D03*
%TO.P,J4,5,Pin_5*%
%TO.N,GND*%
X102500000Y-104580000D03*
%TD*%
D13*
%TO.P,J3,1,Pin_1*%
%TO.N,/PD0*%
X195800000Y-94440000D03*
D20*
%TO.P,J3,2,Pin_2*%
%TO.N,/PD1*%
X195800000Y-96980000D03*
%TO.P,J3,3,Pin_3*%
%TO.N,/PD2*%
X195800000Y-99520000D03*
%TO.P,J3,4,Pin_4*%
%TO.N,/PD3*%
X195800000Y-102060000D03*
%TO.P,J3,5,Pin_5*%
%TO.N,GND*%
X195800000Y-104600000D03*
%TD*%
D21*
%TO.P,D16,1,K*%
%TO.N,/DIG7*%
X119570000Y-86070000D03*
D22*
%TO.P,D16,2,A*%
%TO.N,/DP*%
X119570000Y-83530000D03*
%TD*%
D21*
%TO.P,D15,1,K*%
%TO.N,/DIG7*%
X114100000Y-86070000D03*
D22*
%TO.P,D15,2,A*%
%TO.N,/F*%
X114100000Y-83530000D03*
%TD*%
D21*
%TO.P,D14,1,K*%
%TO.N,/DIG7*%
X186100000Y-86100000D03*
D22*
%TO.P,D14,2,A*%
%TO.N,/F*%
X186100000Y-83560000D03*
%TD*%
D21*
%TO.P,D13,1,K*%
%TO.N,/DIG7*%
X180630000Y-86100000D03*
D22*
%TO.P,D13,2,A*%
%TO.N,/E*%
X180630000Y-83560000D03*
%TD*%
D21*
%TO.P,D12,1,K*%
%TO.N,/DIG7*%
X138640000Y-97400000D03*
D22*
%TO.P,D12,2,A*%
%TO.N,/D*%
X136100000Y-97400000D03*
%TD*%
D21*
%TO.P,D11,1,K*%
%TO.N,/DIG7*%
X138640000Y-102870000D03*
D22*
%TO.P,D11,2,A*%
%TO.N,/C*%
X136100000Y-102870000D03*
%TD*%
D21*
%TO.P,D10,1,K*%
%TO.N,/DIG7*%
X147200000Y-111060000D03*
D22*
%TO.P,D10,2,A*%
%TO.N,/B*%
X147200000Y-113600000D03*
%TD*%
D21*
%TO.P,D9,1,K*%
%TO.N,/DIG7*%
X152670000Y-111060000D03*
D22*
%TO.P,D9,2,A*%
%TO.N,/A*%
X152670000Y-113600000D03*
%TD*%
D21*
%TO.P,D8,1,K*%
%TO.N,/DIG6*%
X162500000Y-101500000D03*
D22*
%TO.P,D8,2,A*%
%TO.N,/DP*%
X162500000Y-104040000D03*
%TD*%
D21*
%TO.P,D7,1,K*%
%TO.N,/DIG6*%
X162500000Y-96000000D03*
D22*
%TO.P,D7,2,A*%
%TO.N,/F*%
X162500000Y-98540000D03*
%TD*%
D21*
%TO.P,D6,1,K*%
%TO.N,/DIG6*%
X152500000Y-88470000D03*
D22*
%TO.P,D6,2,A*%
%TO.N,/F*%
X152500000Y-85930000D03*
%TD*%
D21*
%TO.P,D5,1,K*%
%TO.N,/DIG6*%
X147700000Y-88400000D03*
D22*
%TO.P,D5,2,A*%
%TO.N,/E*%
X147700000Y-85860000D03*
%TD*%
D21*
%TO.P,D4,1,K*%
%TO.N,/DIG6*%
X151660000Y-102670000D03*
D22*
%TO.P,D4,2,A*%
%TO.N,/D*%
X154200000Y-102670000D03*
%TD*%
D21*
%TO.P,D3,1,K*%
%TO.N,/DIG6*%
X151660000Y-97200000D03*
D22*
%TO.P,D3,2,A*%
%TO.N,/C*%
X154200000Y-97200000D03*
%TD*%
D21*
%TO.P,D2,1,K*%
%TO.N,/DIG6*%
X145560000Y-102730000D03*
D22*
%TO.P,D2,2,A*%
%TO.N,/B*%
X148100000Y-102730000D03*
%TD*%
D21*
%TO.P,D1,1,K*%
%TO.N,/DIG6*%
X145560000Y-97260000D03*
D22*
%TO.P,D1,2,A*%
%TO.N,/A*%
X148100000Y-97260000D03*
%TD*%
D23*
%TO.N,GND*%
X184980871Y-157050000D03*
%TO.N,+5V*%
X129100000Y-141400000D03*
X136600000Y-136200000D03*
X135200000Y-127300000D03*
X138816502Y-125339967D03*
X125500000Y-145700000D03*
X128300000Y-146600000D03*
X123800000Y-152800000D03*
X123700000Y-154700000D03*
%TO.N,GND*%
X169600000Y-154200000D03*
X181100000Y-153500000D03*
%TO.N,+5V*%
X185900000Y-140200000D03*
%TO.N,GND*%
X149300000Y-146300000D03*
X147617940Y-150974689D03*
%TO.N,/DIG5*%
X146500000Y-143400000D03*
X158839293Y-150251000D03*
%TO.N,/DIG1*%
X191401748Y-155101748D03*
%TO.N,/DIG7*%
X139400000Y-94300000D03*
X136400000Y-92000000D03*
X136000000Y-88900000D03*
X116900000Y-87700000D03*
X167300000Y-107200000D03*
X175500000Y-95400000D03*
X173700000Y-88000000D03*
X167000000Y-110300000D03*
X173489289Y-129550000D03*
X172000000Y-137900000D03*
X178900000Y-141600000D03*
%TO.N,/DIG6*%
X167300000Y-146500000D03*
X162700000Y-145800000D03*
X159500000Y-130300000D03*
X164800000Y-107300000D03*
%TO.N,/F*%
X172900000Y-91800000D03*
%TO.N,/DIG3*%
X120300000Y-113400000D03*
X127800000Y-117200000D03*
X158850000Y-139646831D03*
X168100000Y-139400000D03*
X172700000Y-149450000D03*
%TO.N,/DIG2*%
X163000000Y-148850000D03*
%TO.N,SCK*%
X160000000Y-154600000D03*
%TO.N,MOSI*%
X187500000Y-155700000D03*
%TO.N,MISO*%
X178300000Y-138000000D03*
X151866111Y-145251000D03*
%TO.N,/LOAD*%
X139400000Y-158000000D03*
%TO.N,/PD3*%
X137047700Y-144193761D03*
%TO.N,/D*%
X195150000Y-146896142D03*
X186000000Y-96500000D03*
X180700000Y-95400000D03*
X170700000Y-106400000D03*
X142700000Y-100100000D03*
X142700000Y-97800000D03*
X134700000Y-93100000D03*
X128700000Y-88800000D03*
X116900000Y-88800000D03*
%TO.N,/DP*%
X185500000Y-107200000D03*
X181426500Y-106509278D03*
X175500000Y-106400000D03*
X156100000Y-93600000D03*
X146210000Y-91109620D03*
X140650000Y-86250000D03*
%TO.N,/E*%
X193599004Y-117817091D03*
%TO.N,/DIG0*%
X181049291Y-119912801D03*
%TO.N,/C*%
X126200000Y-96500000D03*
%TD*%
D24*
%TO.N,/A*%
X146761000Y-98599000D02*
X148100000Y-97260000D01*
X146761000Y-103931000D02*
X146761000Y-98599000D01*
X144359000Y-103931000D02*
X146761000Y-103931000D01*
X137439000Y-96199000D02*
X139841000Y-96199000D01*
%TO.N,/DIG6*%
X145560000Y-102730000D02*
X145560000Y-97260000D01*
%TO.N,/A*%
X142242000Y-98600000D02*
X143559000Y-98600000D01*
X137439000Y-98601000D02*
X137439000Y-96199000D01*
X137202500Y-98837500D02*
X137439000Y-98601000D01*
X139841000Y-96199000D02*
X142242000Y-98600000D01*
X122152500Y-98837500D02*
X137202500Y-98837500D01*
X143559000Y-98600000D02*
X144359000Y-99400000D01*
X144359000Y-99400000D02*
X144359000Y-103931000D01*
%TO.N,GND*%
X195800000Y-104600000D02*
X195800000Y-151622735D01*
X190422735Y-157000000D02*
X185030871Y-157000000D01*
X195800000Y-151622735D02*
X190422735Y-157000000D01*
X185030871Y-157000000D02*
X184980871Y-157050000D01*
%TO.N,/DIG1*%
X194901000Y-147546142D02*
X194901000Y-151956049D01*
X194500000Y-147145142D02*
X194901000Y-147546142D01*
X194901000Y-151956049D02*
X191755301Y-155101748D01*
X194500000Y-146626903D02*
X194500000Y-147145142D01*
X194901000Y-146225903D02*
X194500000Y-146626903D01*
X182076500Y-112809400D02*
X194901000Y-125633900D01*
X182076500Y-99833500D02*
X182076500Y-112809400D01*
X191755301Y-155101748D02*
X191401748Y-155101748D01*
X194901000Y-125633900D02*
X194901000Y-146225903D01*
%TO.N,/D*%
X195400000Y-113371238D02*
X195400000Y-146646142D01*
X195400000Y-146646142D02*
X195150000Y-146896142D01*
X191611262Y-109582500D02*
X195400000Y-113371238D01*
X188307500Y-109582500D02*
X191611262Y-109582500D01*
%TO.N,/DIG1*%
X183227500Y-98682500D02*
X182076500Y-99833500D01*
%TO.N,+5V*%
X124815000Y-141400000D02*
X123020000Y-143195000D01*
X129100000Y-141400000D02*
X124815000Y-141400000D01*
X135200000Y-134800000D02*
X136600000Y-136200000D01*
X135200000Y-127300000D02*
X135200000Y-134800000D01*
X138800000Y-124650000D02*
X138800000Y-125300000D01*
X142750000Y-120700000D02*
X138800000Y-124650000D01*
X155250000Y-120700000D02*
X155250000Y-122500000D01*
X155250000Y-122500000D02*
X162950000Y-130200000D01*
X127400000Y-145700000D02*
X125500000Y-145700000D01*
X128300000Y-146600000D02*
X127400000Y-145700000D01*
X123700000Y-152900000D02*
X123800000Y-152800000D01*
X123700000Y-154700000D02*
X123700000Y-152900000D01*
%TO.N,GND*%
X147750000Y-151106749D02*
X147617940Y-150974689D01*
X147750000Y-153687500D02*
X147750000Y-151106749D01*
%TO.N,/DIG5*%
X158839293Y-149944463D02*
X158839293Y-150251000D01*
X158933249Y-149850507D02*
X158839293Y-149944463D01*
X158933249Y-149733249D02*
X158933249Y-149850507D01*
X152600000Y-143400000D02*
X158933249Y-149733249D01*
X146500000Y-143400000D02*
X152600000Y-143400000D01*
%TO.N,/DIG2*%
X163000000Y-149050000D02*
X163000000Y-148850000D01*
X155394000Y-141694000D02*
X162850000Y-149150000D01*
X130986500Y-127914500D02*
X130986500Y-134384260D01*
X115921500Y-99988500D02*
X115921500Y-112849500D01*
X117072500Y-98837500D02*
X115921500Y-99988500D01*
X115921500Y-112849500D02*
X130986500Y-127914500D01*
X130986500Y-134384260D02*
X138296240Y-141694000D01*
X162900000Y-149150000D02*
X163000000Y-149050000D01*
X138296240Y-141694000D02*
X155394000Y-141694000D01*
X162850000Y-149150000D02*
X162900000Y-149150000D01*
%TO.N,GND*%
X168400000Y-153000000D02*
X168400000Y-151500000D01*
X169600000Y-154200000D02*
X168400000Y-153000000D01*
%TO.N,SCK*%
X178117050Y-140182950D02*
X181500000Y-140182950D01*
X174919000Y-143381000D02*
X178117050Y-140182950D01*
X174919000Y-143998050D02*
X174919000Y-143381000D01*
X172041000Y-151359000D02*
X173936050Y-149463950D01*
X172041000Y-152601000D02*
X172041000Y-151359000D01*
X173936050Y-144981000D02*
X174919000Y-143998050D01*
X170066686Y-152601000D02*
X172041000Y-152601000D01*
X168856050Y-150399000D02*
X169566686Y-151109636D01*
X167943950Y-150399000D02*
X168856050Y-150399000D01*
X167299000Y-151043950D02*
X167943950Y-150399000D01*
X169566686Y-151109636D02*
X169566686Y-152101000D01*
X173936050Y-149463950D02*
X173936050Y-144981000D01*
X160000000Y-154600000D02*
X167299000Y-154600000D01*
X167299000Y-154600000D02*
X167299000Y-151043950D01*
X169566686Y-152101000D02*
X170066686Y-152601000D01*
%TO.N,GND*%
X181100000Y-151500000D02*
X181100000Y-153500000D01*
%TO.N,SCK*%
X190160000Y-150400000D02*
X191260000Y-151500000D01*
X182765686Y-150400000D02*
X190160000Y-150400000D01*
X182265686Y-150900000D02*
X182765686Y-150400000D01*
X179999000Y-156201000D02*
X182265686Y-153934314D01*
X179999000Y-151043950D02*
X179999000Y-156201000D01*
X182265686Y-153934314D02*
X182265686Y-150900000D01*
X181556050Y-142779000D02*
X182200000Y-143422950D01*
X181500000Y-142779000D02*
X181556050Y-142779000D01*
X182200000Y-143422950D02*
X182200000Y-148842950D01*
X181500000Y-140182950D02*
X181500000Y-142779000D01*
X182200000Y-148842950D02*
X179999000Y-151043950D01*
%TO.N,GND*%
X187281000Y-145319000D02*
X181100000Y-151500000D01*
X187281000Y-139146000D02*
X187281000Y-145319000D01*
X185190000Y-137055000D02*
X187281000Y-139146000D01*
%TO.N,MOSI*%
X192361000Y-151043950D02*
X192361000Y-151956050D01*
X189821000Y-148503950D02*
X192361000Y-151043950D01*
X189821000Y-139146000D02*
X189821000Y-148503950D01*
X185190000Y-134515000D02*
X189821000Y-139146000D01*
X192361000Y-151956050D02*
X188617050Y-155700000D01*
X188617050Y-155700000D02*
X187500000Y-155700000D01*
%TO.N,+5V*%
X185900000Y-140200000D02*
X183640000Y-142460000D01*
X183640000Y-142460000D02*
X183640000Y-143880000D01*
%TO.N,/DIG7*%
X173489289Y-129737168D02*
X173489289Y-129550000D01*
X173489289Y-129737168D02*
X173489289Y-129550000D01*
X173489289Y-129737168D02*
X173496032Y-129743911D01*
X173496032Y-129825492D02*
X173496032Y-129743911D01*
X173496032Y-129825492D02*
X173496032Y-129743911D01*
X173496032Y-129825492D02*
X173467849Y-129853675D01*
X173496032Y-129825492D02*
X173467849Y-129853675D01*
X173529260Y-129853675D02*
X173467849Y-129853675D01*
X173529260Y-129853675D02*
X173467849Y-129853675D01*
X173529260Y-129853675D02*
X173415025Y-129967910D01*
X173529260Y-129853675D02*
X173415025Y-129967910D01*
X173415025Y-130061595D02*
X173415025Y-129967910D01*
X173415025Y-130061595D02*
X173415025Y-129967910D01*
X173404552Y-130072068D02*
X173404552Y-130172136D01*
X173400152Y-130272001D02*
X173401494Y-130273343D01*
X173401494Y-130273343D02*
X173401494Y-130347367D01*
X173406457Y-130352330D02*
X173401494Y-130347367D01*
X173406457Y-130352330D02*
X173401494Y-130347367D01*
X173489289Y-129737168D02*
X173496032Y-129743911D01*
X173400152Y-130272001D02*
X173400152Y-130176536D01*
X173406457Y-130352330D02*
X173406457Y-130397354D01*
X173411404Y-130402301D02*
X173406457Y-130397354D01*
X173411404Y-130402301D02*
X173411404Y-130469166D01*
X173415025Y-130061595D02*
X173404552Y-130072068D01*
X173421849Y-130519300D02*
X173421849Y-130479611D01*
X173421849Y-130519300D02*
X173430042Y-130527493D01*
X173430042Y-130580477D02*
X173430042Y-130527493D01*
X173430042Y-130580477D02*
X173430042Y-130527493D01*
X173430042Y-130580477D02*
X173443675Y-130594110D01*
X173400152Y-130176536D02*
X173404552Y-130172136D01*
X173401494Y-130273343D02*
X173401494Y-130347367D01*
X173443675Y-130621443D02*
X173443675Y-130594110D01*
X173443675Y-130621443D02*
X173443675Y-130594110D01*
X173421849Y-130479611D02*
X173411404Y-130469166D01*
X173443675Y-130621443D02*
X173452077Y-130629845D01*
X173421849Y-130479611D02*
X173411404Y-130469166D01*
X173443675Y-130621443D02*
X173452077Y-130629845D01*
X173430042Y-130580477D02*
X173443675Y-130594110D01*
X173452077Y-130664317D02*
X173452077Y-130629845D01*
X173452077Y-130664317D02*
X173452077Y-130629845D01*
X173452077Y-130664317D02*
X173464198Y-130676438D01*
X173411404Y-130402301D02*
X173406457Y-130397354D01*
X173400152Y-130176536D02*
X173404552Y-130172136D01*
X173415025Y-130061595D02*
X173404552Y-130072068D01*
X173452077Y-130664317D02*
X173464198Y-130676438D01*
X173464198Y-130717401D02*
X173464198Y-130676438D01*
X173464198Y-130717401D02*
X173464198Y-130676438D01*
X173464198Y-130717401D02*
X173481140Y-130734343D01*
X173400152Y-130272001D02*
X173400152Y-130176536D01*
X173481140Y-130734343D02*
X173481140Y-130753956D01*
X173404552Y-130072068D02*
X173404552Y-130172136D01*
X173481140Y-130734343D02*
X173481140Y-130753956D01*
X173464198Y-130717401D02*
X173481140Y-130734343D01*
X173490375Y-130763191D02*
X173481140Y-130753956D01*
X173490375Y-130763191D02*
X173481140Y-130753956D01*
X173490375Y-130763191D02*
X173490375Y-130809625D01*
X173406457Y-130352330D02*
X173406457Y-130397354D01*
X173490375Y-130763191D02*
X173490375Y-130809625D01*
X170500000Y-133800000D02*
X173490375Y-130809625D01*
X171328860Y-132890380D02*
X171409620Y-132890380D01*
X171300000Y-132900000D02*
X171319240Y-132900000D01*
X170500000Y-134850000D02*
X170500000Y-133800000D01*
X173421849Y-130519300D02*
X173430042Y-130527493D01*
X173421849Y-130519300D02*
X173421849Y-130479611D01*
X173400152Y-130272001D02*
X173401494Y-130273343D01*
X173411404Y-130402301D02*
X173411404Y-130469166D01*
X171409620Y-132890380D02*
X173490375Y-130809625D01*
X171319240Y-132900000D02*
X171328860Y-132890380D01*
%TO.N,GND*%
X152600000Y-137650000D02*
X152600000Y-134500000D01*
X150472500Y-146300000D02*
X149300000Y-146300000D01*
X155000000Y-150827500D02*
X150472500Y-146300000D01*
X141911500Y-151916000D02*
X143000000Y-150827500D01*
X125103950Y-151916000D02*
X141911500Y-151916000D01*
X124002950Y-150815000D02*
X125103950Y-151916000D01*
X123020000Y-150815000D02*
X124002950Y-150815000D01*
%TO.N,MISO*%
X151401000Y-145251000D02*
X151866111Y-145251000D01*
X150950000Y-144800000D02*
X151401000Y-145251000D01*
X124365685Y-148063635D02*
X124365685Y-144800000D01*
X124365685Y-144800000D02*
X150950000Y-144800000D01*
X124828550Y-148526500D02*
X124365685Y-148063635D01*
X143953106Y-148526500D02*
X124828550Y-148526500D01*
X145301000Y-149874394D02*
X143953106Y-148526500D01*
X125749350Y-153128500D02*
X143953106Y-153128500D01*
X124536850Y-151916000D02*
X125749350Y-153128500D01*
X121734315Y-151086365D02*
X122563950Y-151916000D01*
X121734315Y-149700000D02*
X121734315Y-151086365D01*
X143953106Y-153128500D02*
X145301000Y-151780606D01*
X122563950Y-151916000D02*
X124536850Y-151916000D01*
X145301000Y-151780606D02*
X145301000Y-149874394D01*
X112860000Y-150815000D02*
X113975000Y-149700000D01*
X113975000Y-149700000D02*
X121734315Y-149700000D01*
%TO.N,GND*%
X120480000Y-143195000D02*
X123020000Y-145735000D01*
X123020000Y-145735000D02*
X123020000Y-150815000D01*
X102500000Y-104580000D02*
X102500000Y-125215000D01*
X102500000Y-125215000D02*
X120480000Y-143195000D01*
%TO.N,/DIG3*%
X169501000Y-146251000D02*
X169501000Y-140801000D01*
X169501000Y-140801000D02*
X168100000Y-139400000D01*
X172700000Y-149450000D02*
X169501000Y-146251000D01*
%TO.N,/A*%
X192699000Y-150399000D02*
X193800000Y-151500000D01*
X192699000Y-138421926D02*
X192699000Y-150399000D01*
X184713240Y-133126000D02*
X187403074Y-133126000D01*
X184039000Y-129761926D02*
X184039000Y-132451760D01*
X181676500Y-112976500D02*
X181676500Y-127399426D01*
X179298500Y-108431500D02*
X179298500Y-110598500D01*
X179298500Y-110598500D02*
X181676500Y-112976500D01*
%TO.N,/DIG0*%
X181049291Y-119950709D02*
X181049291Y-119912801D01*
X164421000Y-150399000D02*
X164421000Y-136579000D01*
%TO.N,/A*%
X187403074Y-133126000D02*
X192699000Y-138421926D01*
%TO.N,/DIG0*%
X163320000Y-151500000D02*
X164421000Y-150399000D01*
%TO.N,/DP*%
X181317222Y-106400000D02*
X181426500Y-106509278D01*
X175500000Y-106400000D02*
X181317222Y-106400000D01*
%TO.N,/A*%
X181676500Y-127399426D02*
X184039000Y-129761926D01*
X184039000Y-132451760D02*
X184713240Y-133126000D01*
%TO.N,/DIG0*%
X164421000Y-136579000D02*
X181049291Y-119950709D01*
X183227500Y-107738186D02*
X183227500Y-109582500D01*
X183500000Y-107465686D02*
X183227500Y-107738186D01*
X183500000Y-106634314D02*
X183500000Y-107465686D01*
X183227500Y-106361814D02*
X183500000Y-106634314D01*
X183227500Y-101962500D02*
X183227500Y-106361814D01*
%TO.N,/A*%
X178147500Y-101962500D02*
X171678500Y-108431500D01*
X171678500Y-108431500D02*
X179298500Y-108431500D01*
%TO.N,/F*%
X153669000Y-84761000D02*
X152500000Y-85930000D01*
X184899000Y-84761000D02*
X153669000Y-84761000D01*
X186100000Y-83560000D02*
X184899000Y-84761000D01*
%TO.N,/E*%
X184899000Y-83560000D02*
X180630000Y-83560000D01*
X184899000Y-83062529D02*
X184899000Y-83560000D01*
X185602529Y-82359000D02*
X184899000Y-83062529D01*
X187301000Y-83062529D02*
X186597471Y-82359000D01*
X186597471Y-82359000D02*
X185602529Y-82359000D01*
X187301000Y-83560000D02*
X187301000Y-83062529D01*
X189100000Y-83560000D02*
X187301000Y-83560000D01*
X184782600Y-89510500D02*
X189100000Y-89510500D01*
X185290740Y-89911500D02*
X185237170Y-89965070D01*
X189100000Y-89510500D02*
X189100000Y-83560000D01*
X186244260Y-89911500D02*
X185290740Y-89911500D01*
X186244260Y-92213500D02*
X186918500Y-91539260D01*
X185237170Y-89965070D02*
X184782600Y-89510500D01*
X184700000Y-91622760D02*
X185290740Y-92213500D01*
X185290740Y-92213500D02*
X186244260Y-92213500D01*
X184700000Y-97615000D02*
X184700000Y-91622760D01*
X186918500Y-91539260D02*
X186918500Y-90585740D01*
X186918500Y-90585740D02*
X186244260Y-89911500D01*
X185767500Y-98682500D02*
X184700000Y-97615000D01*
%TO.N,/DIG7*%
X138700000Y-94300000D02*
X139400000Y-94300000D01*
X136400000Y-92000000D02*
X138700000Y-94300000D01*
X133170000Y-86070000D02*
X136000000Y-88900000D01*
X119570000Y-86070000D02*
X133170000Y-86070000D01*
X117940000Y-87700000D02*
X119570000Y-86070000D01*
X116900000Y-87700000D02*
X117940000Y-87700000D01*
%TO.N,/DP*%
X137930000Y-83530000D02*
X140650000Y-86250000D01*
X119570000Y-83530000D02*
X137930000Y-83530000D01*
%TO.N,/PD3*%
X129201000Y-144296000D02*
X128100000Y-143195000D01*
X136945461Y-144296000D02*
X129201000Y-144296000D01*
X137047700Y-144193761D02*
X136945461Y-144296000D01*
%TO.N,/DIG7*%
X175500000Y-95400000D02*
X175500000Y-99000000D01*
%TO.N,/D*%
X170700000Y-104368514D02*
X171184257Y-103884257D01*
X170700000Y-106400000D02*
X170700000Y-104368514D01*
X178800000Y-95400000D02*
X180700000Y-95400000D01*
X175902000Y-99166514D02*
X175902000Y-98298000D01*
%TO.N,/DIG7*%
X175500000Y-99000000D02*
X167300000Y-107200000D01*
%TO.N,/D*%
X171134257Y-103934257D02*
X175902000Y-99166514D01*
X175902000Y-98298000D02*
X178800000Y-95400000D01*
%TO.N,/DIG7*%
X180630000Y-86100000D02*
X175600000Y-86100000D01*
X175600000Y-86100000D02*
X173700000Y-88000000D01*
X167000000Y-110300000D02*
X166240000Y-111060000D01*
X166240000Y-111060000D02*
X152670000Y-111060000D01*
X170500000Y-134850000D02*
X170400000Y-134850000D01*
X171250000Y-134850000D02*
X170500000Y-134850000D01*
X172000000Y-135600000D02*
X171250000Y-134850000D01*
X172000000Y-137900000D02*
X172000000Y-135600000D01*
X179661000Y-142361000D02*
X178900000Y-141600000D01*
X178560000Y-151500000D02*
X179661000Y-150399000D01*
X179661000Y-150399000D02*
X179661000Y-142361000D01*
%TO.N,/DIG6*%
X167300000Y-146500000D02*
X170940000Y-150140000D01*
X170940000Y-150140000D02*
X170940000Y-151500000D01*
X162700000Y-145800000D02*
X162800000Y-145800000D01*
X161100000Y-145800000D02*
X162700000Y-145800000D01*
%TO.N,/DIG3*%
X154312372Y-133499000D02*
X159027938Y-138214566D01*
%TO.N,/DIG6*%
X159500000Y-144200000D02*
X161100000Y-145800000D01*
%TO.N,/DIG3*%
X127800000Y-117200000D02*
X144099000Y-133499000D01*
X144099000Y-133499000D02*
X154312372Y-133499000D01*
%TO.N,/DIG6*%
X159500000Y-130300000D02*
X159500000Y-144200000D01*
%TO.N,/DIG3*%
X159027938Y-139468893D02*
X158850000Y-139646831D01*
X159027938Y-138214566D02*
X159027938Y-139468893D01*
%TO.N,/DIG6*%
X164800000Y-103800000D02*
X164800000Y-107300000D01*
X162500000Y-101500000D02*
X164800000Y-103800000D01*
X145560000Y-90540000D02*
X145560000Y-97260000D01*
X147700000Y-88400000D02*
X145560000Y-90540000D01*
%TO.N,/DP*%
X146150000Y-91109620D02*
X146210000Y-91109620D01*
X146050000Y-91209620D02*
X146150000Y-91109620D01*
X148400000Y-93600000D02*
X146050000Y-91250000D01*
X156100000Y-93600000D02*
X148400000Y-93600000D01*
X146050000Y-91250000D02*
X146050000Y-91209620D01*
%TO.N,/F*%
X166160000Y-98540000D02*
X172900000Y-91800000D01*
X162500000Y-98540000D02*
X166160000Y-98540000D01*
%TO.N,/DIG6*%
X160100000Y-98400000D02*
X152860000Y-98400000D01*
X152860000Y-98400000D02*
X151660000Y-97200000D01*
X162500000Y-96000000D02*
X160100000Y-98400000D01*
X151660000Y-97200000D02*
X151660000Y-102670000D01*
%TO.N,/A*%
X168910000Y-100300000D02*
X178147500Y-91062500D01*
X150459000Y-103871000D02*
X152861000Y-103871000D01*
X150459000Y-101424686D02*
X150459000Y-103871000D01*
X152861000Y-101100000D02*
X153661000Y-100300000D01*
X148100000Y-99065686D02*
X150459000Y-101424686D01*
X153661000Y-100300000D02*
X168910000Y-100300000D01*
X148100000Y-97260000D02*
X148100000Y-99065686D01*
X152861000Y-103871000D02*
X152861000Y-101100000D01*
%TO.N,/DIG6*%
X146761000Y-96059000D02*
X150519000Y-96059000D01*
X145560000Y-97260000D02*
X146761000Y-96059000D01*
X150519000Y-96059000D02*
X151660000Y-97200000D01*
%TO.N,/DIG7*%
X138640000Y-102870000D02*
X138640000Y-97400000D01*
%TO.N,/D*%
X136692060Y-95535148D02*
X140435148Y-95535148D01*
X136100000Y-96127208D02*
X136692060Y-95535148D01*
X140435148Y-95535148D02*
X142700000Y-97800000D01*
X136100000Y-97400000D02*
X136100000Y-96127208D01*
%TO.N,/DIG7*%
X146830000Y-111060000D02*
X138640000Y-102870000D01*
X147200000Y-111060000D02*
X146830000Y-111060000D01*
X152670000Y-111060000D02*
X147200000Y-111060000D01*
%TO.N,/DIG3*%
X120300000Y-112965000D02*
X120300000Y-113400000D01*
X117072500Y-109737500D02*
X120300000Y-112965000D01*
%TO.N,SCK*%
X181500000Y-135665000D02*
X181500000Y-140182950D01*
X182650000Y-134515000D02*
X181500000Y-135665000D01*
%TO.N,MISO*%
X178300000Y-136325000D02*
X182650000Y-131975000D01*
X178300000Y-138000000D02*
X178300000Y-136325000D01*
%TO.N,MOSI*%
X154881000Y-157399000D02*
X160780000Y-151500000D01*
X116904000Y-157399000D02*
X154881000Y-157399000D01*
%TO.N,/LOAD*%
X188720000Y-151500000D02*
X182220000Y-158000000D01*
%TO.N,MOSI*%
X110320000Y-150815000D02*
X116904000Y-157399000D01*
%TO.N,/LOAD*%
X182220000Y-158000000D02*
X139400000Y-158000000D01*
%TO.N,/E*%
X194033109Y-117523591D02*
X193908508Y-117648192D01*
X194983037Y-116467963D02*
X194033109Y-117417891D01*
X194983037Y-116267963D02*
X194983037Y-116467963D01*
X192402963Y-116217963D02*
X194933037Y-116217963D01*
X193673207Y-117817091D02*
X193599004Y-117817091D01*
X194933037Y-116217963D02*
X194983037Y-116267963D01*
X193842106Y-117648192D02*
X193673207Y-117817091D01*
X185767500Y-109582500D02*
X192402963Y-116217963D01*
X193908508Y-117648192D02*
X193842106Y-117648192D01*
X194033109Y-117417891D02*
X194033109Y-117523591D01*
%TO.N,/DIG4*%
X161881000Y-151618050D02*
X162863950Y-152601000D01*
X161881000Y-150714840D02*
X161881000Y-151618050D01*
X162863950Y-152601000D02*
X164759000Y-152601000D01*
X153260160Y-142094000D02*
X161881000Y-150714840D01*
X131076240Y-142094000D02*
X153260160Y-142094000D01*
X123366500Y-134384260D02*
X131076240Y-142094000D01*
X123366500Y-131406500D02*
X123366500Y-134384260D01*
X164759000Y-152601000D02*
X165860000Y-151500000D01*
X120800000Y-128840000D02*
X123366500Y-131406500D01*
%TO.N,/D*%
X189458500Y-108431500D02*
X188307500Y-109582500D01*
X189458500Y-99833500D02*
X189458500Y-108431500D01*
X188307500Y-98682500D02*
X189458500Y-99833500D01*
X186125000Y-96500000D02*
X188307500Y-98682500D01*
X186000000Y-96500000D02*
X186125000Y-96500000D01*
%TO.N,/B*%
X181838500Y-99159260D02*
X181838500Y-98509500D01*
X181838500Y-98509500D02*
X182100000Y-98248000D01*
X182100000Y-98248000D02*
X182100000Y-92475000D01*
X182100000Y-92475000D02*
X180687500Y-91062500D01*
X181164260Y-99833500D02*
X181838500Y-99159260D01*
X180514500Y-99833500D02*
X181164260Y-99833500D01*
X179536500Y-100811500D02*
X180514500Y-99833500D01*
X177670740Y-100811500D02*
X179536500Y-100811500D01*
X170282240Y-108200000D02*
X177670740Y-100811500D01*
X153570000Y-108200000D02*
X170282240Y-108200000D01*
X148100000Y-102730000D02*
X153570000Y-108200000D01*
%TO.N,/D*%
X136100000Y-94500000D02*
X136100000Y-97400000D01*
X134700000Y-93100000D02*
X136100000Y-94500000D01*
X116900000Y-88800000D02*
X128700000Y-88800000D01*
%TO.N,/DP*%
X185500000Y-104770000D02*
X188307500Y-101962500D01*
X185500000Y-107200000D02*
X185500000Y-104770000D01*
X113143500Y-97686500D02*
X111992500Y-98837500D01*
X119570000Y-83530000D02*
X113143500Y-89956500D01*
%TO.N,/E*%
X113381500Y-98014185D02*
X113381500Y-100966500D01*
X113381500Y-100966500D02*
X114532500Y-102117500D01*
X114532500Y-91217500D02*
X114532500Y-96863186D01*
X114532500Y-96863186D02*
X113381500Y-98014185D01*
%TO.N,/DP*%
X113143500Y-89956500D02*
X113143500Y-97686500D01*
%TO.N,/E*%
X112029000Y-130229000D02*
X113180000Y-131380000D01*
X113381500Y-121256500D02*
X112029000Y-122609000D01*
X112029000Y-122609000D02*
X112029000Y-130229000D01*
X113381500Y-103268500D02*
X113381500Y-121256500D01*
X114532500Y-102117500D02*
X113381500Y-103268500D01*
X115683500Y-90066500D02*
X114532500Y-91217500D01*
X143493500Y-90066500D02*
X115683500Y-90066500D01*
X147700000Y-85860000D02*
X143493500Y-90066500D01*
X150000000Y-83560000D02*
X147700000Y-85860000D01*
X180630000Y-83560000D02*
X150000000Y-83560000D01*
X184378500Y-100071500D02*
X185767500Y-98682500D01*
X184378500Y-108193500D02*
X184378500Y-100071500D01*
X185767500Y-109582500D02*
X184378500Y-108193500D01*
%TO.N,/DIG3*%
X117072500Y-109737500D02*
X117072500Y-102117500D01*
%TO.N,/DIG4*%
X120800000Y-128840000D02*
X113180000Y-128840000D01*
%TO.N,/C*%
X116870000Y-96500000D02*
X114532500Y-98837500D01*
X126200000Y-96500000D02*
X116870000Y-96500000D01*
X161488500Y-89911500D02*
X154200000Y-97200000D01*
X184616500Y-89911500D02*
X161488500Y-89911500D01*
X185767500Y-91062500D02*
X184616500Y-89911500D01*
%TO.N,/B*%
X180687500Y-101962500D02*
X179536500Y-100811500D01*
X118400000Y-100050000D02*
X119612500Y-98837500D01*
X118400000Y-108525000D02*
X118400000Y-100050000D01*
X119612500Y-109737500D02*
X118400000Y-108525000D01*
X125900000Y-120050000D02*
X125900000Y-116025000D01*
X125900000Y-116025000D02*
X119612500Y-109737500D01*
X132137500Y-126287500D02*
X125900000Y-120050000D01*
%TO.N,/A*%
X166510000Y-113600000D02*
X152670000Y-113600000D01*
X178147500Y-101962500D02*
X166510000Y-113600000D01*
X121001500Y-108586500D02*
X122152500Y-109737500D01*
X122152500Y-98837500D02*
X121001500Y-99988500D01*
X121001500Y-99988500D02*
X121001500Y-108586500D01*
%TD*%
M02*
