%TF.GenerationSoftware,KiCad,Pcbnew,9.0.0*%
%TF.CreationDate,2025-02-26T11:53:00+01:00*%
%TF.ProjectId,game,67616d65-2e6b-4696-9361-645f70636258,rev?*%
%TF.SameCoordinates,Original*%
%TF.FileFunction,Soldermask,Top*%
%TF.FilePolarity,Negative*%
%FSLAX46Y46*%
G04 Gerber Fmt 4.6, Leading zero omitted, Abs format (unit mm)*
G04 Created by KiCad (PCBNEW 9.0.0) date 2025-02-26 11:53:00*
%MOMM*%
%LPD*%
G01*
G04 APERTURE LIST*
G04 Aperture macros list*
%AMRoundRect*
0 Rectangle with rounded corners*
0 $1 Rounding radius*
0 $2 $3 $4 $5 $6 $7 $8 $9 X,Y pos of 4 corners*
0 Add a 4 corners polygon primitive as box body*
4,1,4,$2,$3,$4,$5,$6,$7,$8,$9,$2,$3,0*
0 Add four circle primitives for the rounded corners*
1,1,$1+$1,$2,$3*
1,1,$1+$1,$4,$5*
1,1,$1+$1,$6,$7*
1,1,$1+$1,$8,$9*
0 Add four rect primitives between the rounded corners*
20,1,$1+$1,$2,$3,$4,$5,0*
20,1,$1+$1,$4,$5,$6,$7,0*
20,1,$1+$1,$6,$7,$8,$9,0*
20,1,$1+$1,$8,$9,$2,$3,0*%
G04 Aperture macros list end*
%ADD10C,4.000000*%
%ADD11C,1.600000*%
%ADD12R,1.600000X1.600000*%
%ADD13R,1.700000X1.700000*%
%ADD14C,1.700000*%
%ADD15RoundRect,0.250000X-0.550000X0.550000X-0.550000X-0.550000X0.550000X-0.550000X0.550000X0.550000X0*%
%ADD16RoundRect,0.250000X0.550000X-0.550000X0.550000X0.550000X-0.550000X0.550000X-0.550000X-0.550000X0*%
%ADD17O,3.000000X2.500000*%
%ADD18C,1.400000*%
%ADD19O,1.400000X1.400000*%
%ADD20O,1.700000X1.700000*%
%ADD21R,1.800000X1.800000*%
%ADD22C,1.800000*%
G04 APERTURE END LIST*
D10*
%TO.C,J5*%
X155000000Y-150827500D03*
X143000000Y-150827500D03*
D11*
X147750000Y-153687500D03*
X150250000Y-153687500D03*
X150250000Y-155687500D03*
D12*
X147750000Y-155687500D03*
%TD*%
D13*
%TO.C,U10*%
X124517500Y-123747500D03*
D14*
X124517500Y-126287500D03*
X124517500Y-128827500D03*
X124517500Y-131367500D03*
X124517500Y-133907500D03*
X132137500Y-133907500D03*
X132137500Y-131367500D03*
X132137500Y-128827500D03*
X132137500Y-126287500D03*
X132137500Y-123747500D03*
%TD*%
D13*
%TO.C,U9*%
X113180000Y-123760000D03*
D14*
X113180000Y-126300000D03*
X113180000Y-128840000D03*
X113180000Y-131380000D03*
X113180000Y-133920000D03*
X120800000Y-133920000D03*
X120800000Y-131380000D03*
X120800000Y-128840000D03*
X120800000Y-126300000D03*
X120800000Y-123760000D03*
%TD*%
D13*
%TO.C,U8*%
X122152500Y-102117500D03*
D14*
X119612500Y-102117500D03*
X117072500Y-102117500D03*
X114532500Y-102117500D03*
X111992500Y-102117500D03*
X111992500Y-109737500D03*
X114532500Y-109737500D03*
X117072500Y-109737500D03*
X119612500Y-109737500D03*
X122152500Y-109737500D03*
%TD*%
D13*
%TO.C,U7*%
X122152500Y-91217500D03*
D14*
X119612500Y-91217500D03*
X117072500Y-91217500D03*
X114532500Y-91217500D03*
X111992500Y-91217500D03*
X111992500Y-98837500D03*
X114532500Y-98837500D03*
X117072500Y-98837500D03*
X119612500Y-98837500D03*
X122152500Y-98837500D03*
%TD*%
D13*
%TO.C,U6*%
X178147500Y-98682500D03*
D14*
X180687500Y-98682500D03*
X183227500Y-98682500D03*
X185767500Y-98682500D03*
X188307500Y-98682500D03*
X188307500Y-91062500D03*
X185767500Y-91062500D03*
X183227500Y-91062500D03*
X180687500Y-91062500D03*
X178147500Y-91062500D03*
%TD*%
D13*
%TO.C,U5*%
X178147500Y-109582500D03*
D14*
X180687500Y-109582500D03*
X183227500Y-109582500D03*
X185767500Y-109582500D03*
X188307500Y-109582500D03*
X188307500Y-101962500D03*
X185767500Y-101962500D03*
X183227500Y-101962500D03*
X180687500Y-101962500D03*
X178147500Y-101962500D03*
%TD*%
D15*
%TO.C,U2*%
X138260000Y-143195000D03*
D11*
X135720000Y-143195000D03*
X133180000Y-143195000D03*
X130640000Y-143195000D03*
X128100000Y-143195000D03*
X125560000Y-143195000D03*
X123020000Y-143195000D03*
X120480000Y-143195000D03*
X117940000Y-143195000D03*
X115400000Y-143195000D03*
X112860000Y-143195000D03*
X110320000Y-143195000D03*
X107780000Y-143195000D03*
X105240000Y-143195000D03*
X105240000Y-150815000D03*
X107780000Y-150815000D03*
X110320000Y-150815000D03*
X112860000Y-150815000D03*
X115400000Y-150815000D03*
X117940000Y-150815000D03*
X120480000Y-150815000D03*
X123020000Y-150815000D03*
X125560000Y-150815000D03*
X128100000Y-150815000D03*
X130640000Y-150815000D03*
X133180000Y-150815000D03*
X135720000Y-150815000D03*
X138260000Y-150815000D03*
%TD*%
D16*
%TO.C,U1*%
X160780000Y-151500000D03*
D11*
X163320000Y-151500000D03*
X165860000Y-151500000D03*
X168400000Y-151500000D03*
X170940000Y-151500000D03*
X173480000Y-151500000D03*
X176020000Y-151500000D03*
X178560000Y-151500000D03*
X181100000Y-151500000D03*
X183640000Y-151500000D03*
X186180000Y-151500000D03*
X188720000Y-151500000D03*
X191260000Y-151500000D03*
X193800000Y-151500000D03*
X193800000Y-143880000D03*
X191260000Y-143880000D03*
X188720000Y-143880000D03*
X186180000Y-143880000D03*
X183640000Y-143880000D03*
X181100000Y-143880000D03*
X178560000Y-143880000D03*
X176020000Y-143880000D03*
X173480000Y-143880000D03*
X170940000Y-143880000D03*
X168400000Y-143880000D03*
X165860000Y-143880000D03*
X163320000Y-143880000D03*
X160780000Y-143880000D03*
%TD*%
D17*
%TO.C,SW4*%
X162950000Y-130200000D03*
X175450000Y-130200000D03*
X162950000Y-135200000D03*
X175450000Y-135200000D03*
%TD*%
%TO.C,SW3*%
X142750000Y-120700000D03*
X155250000Y-120700000D03*
X142750000Y-125700000D03*
X155250000Y-125700000D03*
%TD*%
D18*
%TO.C,R3*%
X144980000Y-137650000D03*
D19*
X152600000Y-137650000D03*
%TD*%
D18*
%TO.C,R2*%
X144980000Y-134500000D03*
D19*
X152600000Y-134500000D03*
%TD*%
D18*
%TO.C,R1*%
X144980000Y-131350000D03*
D19*
X152600000Y-131350000D03*
%TD*%
D13*
%TO.C,J6*%
X182650000Y-131975000D03*
D20*
X185190000Y-131975000D03*
X182650000Y-134515000D03*
X185190000Y-134515000D03*
X182650000Y-137055000D03*
X185190000Y-137055000D03*
%TD*%
D13*
%TO.C,J4*%
X102500000Y-94420000D03*
D20*
X102500000Y-96960000D03*
X102500000Y-99500000D03*
X102500000Y-102040000D03*
X102500000Y-104580000D03*
%TD*%
D13*
%TO.C,J3*%
X195800000Y-94440000D03*
D20*
X195800000Y-96980000D03*
X195800000Y-99520000D03*
X195800000Y-102060000D03*
X195800000Y-104600000D03*
%TD*%
D21*
%TO.C,D16*%
X119570000Y-86070000D03*
D22*
X119570000Y-83530000D03*
%TD*%
D21*
%TO.C,D15*%
X114100000Y-86070000D03*
D22*
X114100000Y-83530000D03*
%TD*%
D21*
%TO.C,D14*%
X186100000Y-86100000D03*
D22*
X186100000Y-83560000D03*
%TD*%
D21*
%TO.C,D13*%
X180630000Y-86100000D03*
D22*
X180630000Y-83560000D03*
%TD*%
D21*
%TO.C,D12*%
X138640000Y-97400000D03*
D22*
X136100000Y-97400000D03*
%TD*%
D21*
%TO.C,D11*%
X138640000Y-102870000D03*
D22*
X136100000Y-102870000D03*
%TD*%
D21*
%TO.C,D10*%
X147200000Y-111060000D03*
D22*
X147200000Y-113600000D03*
%TD*%
D21*
%TO.C,D9*%
X152670000Y-111060000D03*
D22*
X152670000Y-113600000D03*
%TD*%
D21*
%TO.C,D8*%
X162500000Y-101500000D03*
D22*
X162500000Y-104040000D03*
%TD*%
D21*
%TO.C,D7*%
X162500000Y-96000000D03*
D22*
X162500000Y-98540000D03*
%TD*%
D21*
%TO.C,D6*%
X152500000Y-88470000D03*
D22*
X152500000Y-85930000D03*
%TD*%
D21*
%TO.C,D5*%
X147700000Y-88400000D03*
D22*
X147700000Y-85860000D03*
%TD*%
D21*
%TO.C,D4*%
X151660000Y-102670000D03*
D22*
X154200000Y-102670000D03*
%TD*%
D21*
%TO.C,D3*%
X151660000Y-97200000D03*
D22*
X154200000Y-97200000D03*
%TD*%
D21*
%TO.C,D2*%
X145560000Y-102730000D03*
D22*
X148100000Y-102730000D03*
%TD*%
D21*
%TO.C,D1*%
X145560000Y-97260000D03*
D22*
X148100000Y-97260000D03*
%TD*%
M02*
