M48
; DRILL file {KiCad 9.0.0} date 2025-02-26T11:52:59+0100
; FORMAT={-:-/ absolute / metric / decimal}
; #@! TF.CreationDate,2025-02-26T11:52:59+01:00
; #@! TF.GenerationSoftware,Kicad,Pcbnew,9.0.0
; #@! TF.FileFunction,Plated,1,2,PTH
FMAT,2
METRIC
; #@! TA.AperFunction,Plated,PTH,ViaDrill
T1C0.300
; #@! TA.AperFunction,Plated,PTH,ComponentDrill
T2C0.700
; #@! TA.AperFunction,Plated,PTH,ComponentDrill
T3C0.800
; #@! TA.AperFunction,Plated,PTH,ComponentDrill
T4C0.900
; #@! TA.AperFunction,Plated,PTH,ComponentDrill
T5C0.950
; #@! TA.AperFunction,Plated,PTH,ComponentDrill
T6C1.000
; #@! TA.AperFunction,Plated,PTH,ComponentDrill
T7C1.200
; #@! TA.AperFunction,Plated,PTH,ComponentDrill
T8C2.300
%
G90
G05
T1
X116.9Y-87.7
X116.9Y-88.8
X120.3Y-113.4
X123.7Y-154.7
X123.8Y-152.8
X125.5Y-145.7
X126.2Y-96.5
X127.8Y-117.2
X128.3Y-146.6
X128.7Y-88.8
X129.1Y-141.4
X134.7Y-93.1
X135.2Y-127.3
X136.0Y-88.9
X136.4Y-92.0
X136.6Y-136.2
X137.048Y-144.194
X138.817Y-125.34
X139.4Y-94.3
X139.4Y-158.0
X140.65Y-86.25
X142.7Y-97.8
X142.7Y-100.1
X146.21Y-91.11
X146.5Y-143.4
X147.618Y-150.975
X149.3Y-146.3
X151.866Y-145.251
X156.1Y-93.6
X158.839Y-150.251
X158.85Y-139.647
X159.5Y-130.3
X160.0Y-154.6
X162.7Y-145.8
X163.0Y-148.85
X164.8Y-107.3
X167.0Y-110.3
X167.3Y-107.2
X167.3Y-146.5
X168.1Y-139.4
X169.6Y-154.2
X170.7Y-106.4
X172.0Y-137.9
X172.7Y-149.45
X172.9Y-91.8
X173.489Y-129.55
X173.7Y-88.0
X175.5Y-95.4
X175.5Y-106.4
X178.3Y-138.0
X178.9Y-141.6
X180.7Y-95.4
X181.049Y-119.913
X181.1Y-153.5
X181.427Y-106.509
X184.981Y-157.05
X185.5Y-107.2
X185.9Y-140.2
X186.0Y-96.5
X187.5Y-155.7
X191.402Y-155.102
X193.599Y-117.817
X195.15Y-146.896
T2
X144.98Y-131.35
X144.98Y-134.5
X144.98Y-137.65
X152.6Y-131.35
X152.6Y-134.5
X152.6Y-137.65
T3
X105.24Y-143.195
X105.24Y-150.815
X107.78Y-143.195
X107.78Y-150.815
X110.32Y-143.195
X110.32Y-150.815
X112.86Y-143.195
X112.86Y-150.815
X115.4Y-143.195
X115.4Y-150.815
X117.94Y-143.195
X117.94Y-150.815
X120.48Y-143.195
X120.48Y-150.815
X123.02Y-143.195
X123.02Y-150.815
X125.56Y-143.195
X125.56Y-150.815
X128.1Y-143.195
X128.1Y-150.815
X130.64Y-143.195
X130.64Y-150.815
X133.18Y-143.195
X133.18Y-150.815
X135.72Y-143.195
X135.72Y-150.815
X138.26Y-143.195
X138.26Y-150.815
X160.78Y-143.88
X160.78Y-151.5
X163.32Y-143.88
X163.32Y-151.5
X165.86Y-143.88
X165.86Y-151.5
X168.4Y-143.88
X168.4Y-151.5
X170.94Y-143.88
X170.94Y-151.5
X173.48Y-143.88
X173.48Y-151.5
X176.02Y-143.88
X176.02Y-151.5
X178.56Y-143.88
X178.56Y-151.5
X181.1Y-143.88
X181.1Y-151.5
X183.64Y-143.88
X183.64Y-151.5
X186.18Y-143.88
X186.18Y-151.5
X188.72Y-143.88
X188.72Y-151.5
X191.26Y-143.88
X191.26Y-151.5
X193.8Y-143.88
X193.8Y-151.5
T4
X114.1Y-83.53
X114.1Y-86.07
X119.57Y-83.53
X119.57Y-86.07
X136.1Y-97.4
X136.1Y-102.87
X138.64Y-97.4
X138.64Y-102.87
X145.56Y-97.26
X145.56Y-102.73
X147.2Y-111.06
X147.2Y-113.6
X147.7Y-85.86
X147.7Y-88.4
X148.1Y-97.26
X148.1Y-102.73
X151.66Y-97.2
X151.66Y-102.67
X152.5Y-85.93
X152.5Y-88.47
X152.67Y-111.06
X152.67Y-113.6
X154.2Y-97.2
X154.2Y-102.67
X162.5Y-96.0
X162.5Y-98.54
X162.5Y-101.5
X162.5Y-104.04
X180.63Y-83.56
X180.63Y-86.1
X186.1Y-83.56
X186.1Y-86.1
T5
X147.75Y-153.688
X147.75Y-155.688
X150.25Y-153.688
X150.25Y-155.688
T6
X102.5Y-94.42
X102.5Y-96.96
X102.5Y-99.5
X102.5Y-102.04
X102.5Y-104.58
X111.992Y-91.218
X111.992Y-98.837
X111.992Y-102.117
X111.992Y-109.737
X113.18Y-123.76
X113.18Y-126.3
X113.18Y-128.84
X113.18Y-131.38
X113.18Y-133.92
X114.532Y-91.218
X114.532Y-98.837
X114.532Y-102.117
X114.532Y-109.737
X117.072Y-91.218
X117.072Y-98.837
X117.072Y-102.117
X117.072Y-109.737
X119.612Y-91.218
X119.612Y-98.837
X119.612Y-102.117
X119.612Y-109.737
X120.8Y-123.76
X120.8Y-126.3
X120.8Y-128.84
X120.8Y-131.38
X120.8Y-133.92
X122.152Y-91.218
X122.152Y-98.837
X122.152Y-102.117
X122.152Y-109.737
X124.517Y-123.747
X124.517Y-126.287
X124.517Y-128.827
X124.517Y-131.368
X124.517Y-133.907
X132.137Y-123.747
X132.137Y-126.287
X132.137Y-128.827
X132.137Y-131.368
X132.137Y-133.907
X178.147Y-91.062
X178.147Y-98.682
X178.147Y-101.962
X178.147Y-109.582
X180.688Y-91.062
X180.688Y-98.682
X180.688Y-101.962
X180.688Y-109.582
X182.65Y-131.975
X182.65Y-134.515
X182.65Y-137.055
X183.227Y-91.062
X183.227Y-98.682
X183.227Y-101.962
X183.227Y-109.582
X185.19Y-131.975
X185.19Y-134.515
X185.19Y-137.055
X185.767Y-91.062
X185.767Y-98.682
X185.767Y-101.962
X185.767Y-109.582
X188.308Y-91.062
X188.308Y-98.682
X188.308Y-101.962
X188.308Y-109.582
X195.8Y-94.44
X195.8Y-96.98
X195.8Y-99.52
X195.8Y-102.06
X195.8Y-104.6
T7
X142.75Y-120.7
X142.75Y-125.7
X155.25Y-120.7
X155.25Y-125.7
X162.95Y-130.2
X162.95Y-135.2
X175.45Y-130.2
X175.45Y-135.2
T8
X143.0Y-150.827
X155.0Y-150.827
M30
