%TF.GenerationSoftware,KiCad,Pcbnew,9.0.0*%
%TF.CreationDate,2025-02-26T11:53:00+01:00*%
%TF.ProjectId,game,67616d65-2e6b-4696-9361-645f70636258,rev?*%
%TF.SameCoordinates,Original*%
%TF.FileFunction,Copper,L1,Top*%
%TF.FilePolarity,Positive*%
%FSLAX46Y46*%
G04 Gerber Fmt 4.6, Leading zero omitted, Abs format (unit mm)*
G04 Created by KiCad (PCBNEW 9.0.0) date 2025-02-26 11:53:00*
%MOMM*%
%LPD*%
G01*
G04 APERTURE LIST*
G04 Aperture macros list*
%AMRoundRect*
0 Rectangle with rounded corners*
0 $1 Rounding radius*
0 $2 $3 $4 $5 $6 $7 $8 $9 X,Y pos of 4 corners*
0 Add a 4 corners polygon primitive as box body*
4,1,4,$2,$3,$4,$5,$6,$7,$8,$9,$2,$3,0*
0 Add four circle primitives for the rounded corners*
1,1,$1+$1,$2,$3*
1,1,$1+$1,$4,$5*
1,1,$1+$1,$6,$7*
1,1,$1+$1,$8,$9*
0 Add four rect primitives between the rounded corners*
20,1,$1+$1,$2,$3,$4,$5,0*
20,1,$1+$1,$4,$5,$6,$7,0*
20,1,$1+$1,$6,$7,$8,$9,0*
20,1,$1+$1,$8,$9,$2,$3,0*%
G04 Aperture macros list end*
%TA.AperFunction,ComponentPad*%
%ADD10C,4.000000*%
%TD*%
%TA.AperFunction,ComponentPad*%
%ADD11C,1.600000*%
%TD*%
%TA.AperFunction,ComponentPad*%
%ADD12R,1.600000X1.600000*%
%TD*%
%TA.AperFunction,ComponentPad*%
%ADD13R,1.700000X1.700000*%
%TD*%
%TA.AperFunction,ComponentPad*%
%ADD14C,1.700000*%
%TD*%
%TA.AperFunction,ComponentPad*%
%ADD15RoundRect,0.250000X-0.550000X0.550000X-0.550000X-0.550000X0.550000X-0.550000X0.550000X0.550000X0*%
%TD*%
%TA.AperFunction,ComponentPad*%
%ADD16RoundRect,0.250000X0.550000X-0.550000X0.550000X0.550000X-0.550000X0.550000X-0.550000X-0.550000X0*%
%TD*%
%TA.AperFunction,ComponentPad*%
%ADD17O,3.000000X2.500000*%
%TD*%
%TA.AperFunction,ComponentPad*%
%ADD18C,1.400000*%
%TD*%
%TA.AperFunction,ComponentPad*%
%ADD19O,1.400000X1.400000*%
%TD*%
%TA.AperFunction,ComponentPad*%
%ADD20O,1.700000X1.700000*%
%TD*%
%TA.AperFunction,ComponentPad*%
%ADD21R,1.800000X1.800000*%
%TD*%
%TA.AperFunction,ComponentPad*%
%ADD22C,1.800000*%
%TD*%
%TA.AperFunction,ViaPad*%
%ADD23C,0.600000*%
%TD*%
%TA.AperFunction,Conductor*%
%ADD24C,0.200000*%
%TD*%
G04 APERTURE END LIST*
D10*
%TO.P,J5,5,Shield*%
%TO.N,GND*%
X155000000Y-150827500D03*
X143000000Y-150827500D03*
D11*
%TO.P,J5,4,GND*%
X147750000Y-153687500D03*
%TO.P,J5,3,D+*%
%TO.N,unconnected-(J5-D+-Pad3)*%
X150250000Y-153687500D03*
%TO.P,J5,2,D-*%
%TO.N,unconnected-(J5-D--Pad2)*%
X150250000Y-155687500D03*
D12*
%TO.P,J5,1,VBUS*%
%TO.N,+5V*%
X147750000Y-155687500D03*
%TD*%
D13*
%TO.P,U10,1,G*%
%TO.N,/G*%
X124517500Y-123747500D03*
D14*
%TO.P,U10,2,F*%
%TO.N,/F*%
X124517500Y-126287500D03*
%TO.P,U10,3,GND*%
%TO.N,/DIG5*%
X124517500Y-128827500D03*
%TO.P,U10,4,E*%
%TO.N,/E*%
X124517500Y-131367500D03*
%TO.P,U10,5,D*%
%TO.N,/D*%
X124517500Y-133907500D03*
%TO.P,U10,6,DP*%
%TO.N,/DP*%
X132137500Y-133907500D03*
%TO.P,U10,7,C*%
%TO.N,/C*%
X132137500Y-131367500D03*
%TO.P,U10,8,GND*%
%TO.N,/DIG5*%
X132137500Y-128827500D03*
%TO.P,U10,9,B*%
%TO.N,/B*%
X132137500Y-126287500D03*
%TO.P,U10,10,A*%
%TO.N,/A*%
X132137500Y-123747500D03*
%TD*%
D13*
%TO.P,U9,1,G*%
%TO.N,/G*%
X113180000Y-123760000D03*
D14*
%TO.P,U9,2,F*%
%TO.N,/F*%
X113180000Y-126300000D03*
%TO.P,U9,3,GND*%
%TO.N,/DIG4*%
X113180000Y-128840000D03*
%TO.P,U9,4,E*%
%TO.N,/E*%
X113180000Y-131380000D03*
%TO.P,U9,5,D*%
%TO.N,/D*%
X113180000Y-133920000D03*
%TO.P,U9,6,DP*%
%TO.N,/DP*%
X120800000Y-133920000D03*
%TO.P,U9,7,C*%
%TO.N,/C*%
X120800000Y-131380000D03*
%TO.P,U9,8,GND*%
%TO.N,/DIG4*%
X120800000Y-128840000D03*
%TO.P,U9,9,B*%
%TO.N,/B*%
X120800000Y-126300000D03*
%TO.P,U9,10,A*%
%TO.N,/A*%
X120800000Y-123760000D03*
%TD*%
D13*
%TO.P,U8,1,G*%
%TO.N,/G*%
X122152500Y-102117500D03*
D14*
%TO.P,U8,2,F*%
%TO.N,/F*%
X119612500Y-102117500D03*
%TO.P,U8,3,GND*%
%TO.N,/DIG3*%
X117072500Y-102117500D03*
%TO.P,U8,4,E*%
%TO.N,/E*%
X114532500Y-102117500D03*
%TO.P,U8,5,D*%
%TO.N,/D*%
X111992500Y-102117500D03*
%TO.P,U8,6,DP*%
%TO.N,/DP*%
X111992500Y-109737500D03*
%TO.P,U8,7,C*%
%TO.N,/C*%
X114532500Y-109737500D03*
%TO.P,U8,8,GND*%
%TO.N,/DIG3*%
X117072500Y-109737500D03*
%TO.P,U8,9,B*%
%TO.N,/B*%
X119612500Y-109737500D03*
%TO.P,U8,10,A*%
%TO.N,/A*%
X122152500Y-109737500D03*
%TD*%
D13*
%TO.P,U7,1,G*%
%TO.N,/G*%
X122152500Y-91217500D03*
D14*
%TO.P,U7,2,F*%
%TO.N,/F*%
X119612500Y-91217500D03*
%TO.P,U7,3,GND*%
%TO.N,/DIG2*%
X117072500Y-91217500D03*
%TO.P,U7,4,E*%
%TO.N,/E*%
X114532500Y-91217500D03*
%TO.P,U7,5,D*%
%TO.N,/D*%
X111992500Y-91217500D03*
%TO.P,U7,6,DP*%
%TO.N,/DP*%
X111992500Y-98837500D03*
%TO.P,U7,7,C*%
%TO.N,/C*%
X114532500Y-98837500D03*
%TO.P,U7,8,GND*%
%TO.N,/DIG2*%
X117072500Y-98837500D03*
%TO.P,U7,9,B*%
%TO.N,/B*%
X119612500Y-98837500D03*
%TO.P,U7,10,A*%
%TO.N,/A*%
X122152500Y-98837500D03*
%TD*%
D13*
%TO.P,U6,1,G*%
%TO.N,/G*%
X178147500Y-98682500D03*
D14*
%TO.P,U6,2,F*%
%TO.N,/F*%
X180687500Y-98682500D03*
%TO.P,U6,3,GND*%
%TO.N,/DIG1*%
X183227500Y-98682500D03*
%TO.P,U6,4,E*%
%TO.N,/E*%
X185767500Y-98682500D03*
%TO.P,U6,5,D*%
%TO.N,/D*%
X188307500Y-98682500D03*
%TO.P,U6,6,DP*%
%TO.N,/DP*%
X188307500Y-91062500D03*
%TO.P,U6,7,C*%
%TO.N,/C*%
X185767500Y-91062500D03*
%TO.P,U6,8,GND*%
%TO.N,/DIG1*%
X183227500Y-91062500D03*
%TO.P,U6,9,B*%
%TO.N,/B*%
X180687500Y-91062500D03*
%TO.P,U6,10,A*%
%TO.N,/A*%
X178147500Y-91062500D03*
%TD*%
D13*
%TO.P,U5,1,G*%
%TO.N,/G*%
X178147500Y-109582500D03*
D14*
%TO.P,U5,2,F*%
%TO.N,/F*%
X180687500Y-109582500D03*
%TO.P,U5,3,GND*%
%TO.N,/DIG0*%
X183227500Y-109582500D03*
%TO.P,U5,4,E*%
%TO.N,/E*%
X185767500Y-109582500D03*
%TO.P,U5,5,D*%
%TO.N,/D*%
X188307500Y-109582500D03*
%TO.P,U5,6,DP*%
%TO.N,/DP*%
X188307500Y-101962500D03*
%TO.P,U5,7,C*%
%TO.N,/C*%
X185767500Y-101962500D03*
%TO.P,U5,8,GND*%
%TO.N,/DIG0*%
X183227500Y-101962500D03*
%TO.P,U5,9,B*%
%TO.N,/B*%
X180687500Y-101962500D03*
%TO.P,U5,10,A*%
%TO.N,/A*%
X178147500Y-101962500D03*
%TD*%
D15*
%TO.P,U2,1,~{RESET}/PC6*%
%TO.N,unconnected-(U2-~{RESET}{slash}PC6-Pad1)*%
X138260000Y-143195000D03*
D11*
%TO.P,U2,2,PD0*%
%TO.N,/PD0*%
X135720000Y-143195000D03*
%TO.P,U2,3,PD1*%
%TO.N,/PD1*%
X133180000Y-143195000D03*
%TO.P,U2,4,PD2*%
%TO.N,/PD2*%
X130640000Y-143195000D03*
%TO.P,U2,5,PD3*%
%TO.N,/PD3*%
X128100000Y-143195000D03*
%TO.P,U2,6,PD4*%
%TO.N,/PD4*%
X125560000Y-143195000D03*
%TO.P,U2,7,VCC*%
%TO.N,+5V*%
X123020000Y-143195000D03*
%TO.P,U2,8,GND*%
%TO.N,GND*%
X120480000Y-143195000D03*
%TO.P,U2,9,XTAL1/PB6*%
%TO.N,unconnected-(U2-XTAL1{slash}PB6-Pad9)*%
X117940000Y-143195000D03*
%TO.P,U2,10,XTAL2/PB7*%
%TO.N,unconnected-(U2-XTAL2{slash}PB7-Pad10)*%
X115400000Y-143195000D03*
%TO.P,U2,11,PD5*%
%TO.N,/PD5*%
X112860000Y-143195000D03*
%TO.P,U2,12,PD6*%
%TO.N,/PD6*%
X110320000Y-143195000D03*
%TO.P,U2,13,PD7*%
%TO.N,/PD7*%
X107780000Y-143195000D03*
%TO.P,U2,14,PB0*%
%TO.N,/PB0*%
X105240000Y-143195000D03*
%TO.P,U2,15,PB1*%
%TO.N,/PB1*%
X105240000Y-150815000D03*
%TO.P,U2,16,PB2*%
%TO.N,/LOAD*%
X107780000Y-150815000D03*
%TO.P,U2,17,PB3*%
%TO.N,MOSI*%
X110320000Y-150815000D03*
%TO.P,U2,18,PB4*%
%TO.N,MISO*%
X112860000Y-150815000D03*
%TO.P,U2,19,PB5*%
%TO.N,SCK*%
X115400000Y-150815000D03*
%TO.P,U2,20,AVCC*%
%TO.N,unconnected-(U2-AVCC-Pad20)*%
X117940000Y-150815000D03*
%TO.P,U2,21,AREF*%
%TO.N,unconnected-(U2-AREF-Pad21)*%
X120480000Y-150815000D03*
%TO.P,U2,22,GND*%
%TO.N,GND*%
X123020000Y-150815000D03*
%TO.P,U2,23,PC0*%
%TO.N,+5V*%
X125560000Y-150815000D03*
%TO.P,U2,24,PC1*%
%TO.N,unconnected-(U2-PC1-Pad24)*%
X128100000Y-150815000D03*
%TO.P,U2,25,PC2*%
%TO.N,unconnected-(U2-PC2-Pad25)*%
X130640000Y-150815000D03*
%TO.P,U2,26,PC3*%
%TO.N,unconnected-(U2-PC3-Pad26)*%
X133180000Y-150815000D03*
%TO.P,U2,27,PC4*%
%TO.N,unconnected-(U2-PC4-Pad27)*%
X135720000Y-150815000D03*
%TO.P,U2,28,PC5*%
%TO.N,unconnected-(U2-PC5-Pad28)*%
X138260000Y-150815000D03*
%TD*%
D16*
%TO.P,U1,1,DIN*%
%TO.N,MOSI*%
X160780000Y-151500000D03*
D11*
%TO.P,U1,2,DIG_0*%
%TO.N,/DIG0*%
X163320000Y-151500000D03*
%TO.P,U1,3,DIG_4*%
%TO.N,/DIG4*%
X165860000Y-151500000D03*
%TO.P,U1,4,GND*%
%TO.N,GND*%
X168400000Y-151500000D03*
%TO.P,U1,5,DIG_6*%
%TO.N,/DIG6*%
X170940000Y-151500000D03*
%TO.P,U1,6,DIG_2*%
%TO.N,/DIG2*%
X173480000Y-151500000D03*
%TO.P,U1,7,DIG_3*%
%TO.N,/DIG3*%
X176020000Y-151500000D03*
%TO.P,U1,8,DIG_7*%
%TO.N,/DIG7*%
X178560000Y-151500000D03*
%TO.P,U1,9,GND*%
%TO.N,GND*%
X181100000Y-151500000D03*
%TO.P,U1,10,DIG_5*%
%TO.N,/DIG5*%
X183640000Y-151500000D03*
%TO.P,U1,11,DIG_1*%
%TO.N,/DIG1*%
X186180000Y-151500000D03*
%TO.P,U1,12,LOAD*%
%TO.N,/LOAD*%
X188720000Y-151500000D03*
%TO.P,U1,13,CLK*%
%TO.N,SCK*%
X191260000Y-151500000D03*
%TO.P,U1,14,SEG_A*%
%TO.N,/A*%
X193800000Y-151500000D03*
%TO.P,U1,15,SEG_F*%
%TO.N,/F*%
X193800000Y-143880000D03*
%TO.P,U1,16,SEG_B*%
%TO.N,/B*%
X191260000Y-143880000D03*
%TO.P,U1,17,SEG_G*%
%TO.N,/G*%
X188720000Y-143880000D03*
%TO.P,U1,18,ISET*%
%TO.N,Net-(U1-ISET)*%
X186180000Y-143880000D03*
%TO.P,U1,19,V+*%
%TO.N,+5V*%
X183640000Y-143880000D03*
%TO.P,U1,20,SEG_C*%
%TO.N,/C*%
X181100000Y-143880000D03*
%TO.P,U1,21,SEG_E*%
%TO.N,/E*%
X178560000Y-143880000D03*
%TO.P,U1,22,SEG_DP*%
%TO.N,/DP*%
X176020000Y-143880000D03*
%TO.P,U1,23,SEG_D*%
%TO.N,/D*%
X173480000Y-143880000D03*
%TO.P,U1,24,DOUT*%
%TO.N,unconnected-(U1-DOUT-Pad24)*%
X170940000Y-143880000D03*
%TO.P,U1,25*%
%TO.N,N/C*%
X168400000Y-143880000D03*
%TO.P,U1,26*%
X165860000Y-143880000D03*
%TO.P,U1,27*%
X163320000Y-143880000D03*
%TO.P,U1,28*%
X160780000Y-143880000D03*
%TD*%
D17*
%TO.P,SW4,1,1*%
%TO.N,+5V*%
X162950000Y-130200000D03*
X175450000Y-130200000D03*
%TO.P,SW4,2,2*%
%TO.N,unconnected-(SW4-Pad2)*%
X162950000Y-135200000D03*
%TO.N,unconnected-(SW4-Pad2)_1*%
X175450000Y-135200000D03*
%TD*%
%TO.P,SW3,1,1*%
%TO.N,+5V*%
X142750000Y-120700000D03*
X155250000Y-120700000D03*
%TO.P,SW3,2,2*%
%TO.N,unconnected-(SW3-Pad2)*%
X142750000Y-125700000D03*
%TO.N,unconnected-(SW3-Pad2)_1*%
X155250000Y-125700000D03*
%TD*%
D18*
%TO.P,R3,1*%
%TO.N,/PB1*%
X144980000Y-137650000D03*
D19*
%TO.P,R3,2*%
%TO.N,GND*%
X152600000Y-137650000D03*
%TD*%
D18*
%TO.P,R2,1*%
%TO.N,/PB0*%
X144980000Y-134500000D03*
D19*
%TO.P,R2,2*%
%TO.N,GND*%
X152600000Y-134500000D03*
%TD*%
D18*
%TO.P,R1,1*%
%TO.N,GND*%
X144980000Y-131350000D03*
D19*
%TO.P,R1,2*%
%TO.N,Net-(U1-ISET)*%
X152600000Y-131350000D03*
%TD*%
D13*
%TO.P,J6,1,Pin_1*%
%TO.N,MISO*%
X182650000Y-131975000D03*
D20*
%TO.P,J6,2,Pin_2*%
%TO.N,+5V*%
X185190000Y-131975000D03*
%TO.P,J6,3,Pin_3*%
%TO.N,SCK*%
X182650000Y-134515000D03*
%TO.P,J6,4,Pin_4*%
%TO.N,MOSI*%
X185190000Y-134515000D03*
%TO.P,J6,5,Pin_5*%
%TO.N,Reset*%
X182650000Y-137055000D03*
%TO.P,J6,6,Pin_6*%
%TO.N,GND*%
X185190000Y-137055000D03*
%TD*%
D13*
%TO.P,J4,1,Pin_1*%
%TO.N,/PD4*%
X102500000Y-94420000D03*
D20*
%TO.P,J4,2,Pin_2*%
%TO.N,/PD5*%
X102500000Y-96960000D03*
%TO.P,J4,3,Pin_3*%
%TO.N,/PD6*%
X102500000Y-99500000D03*
%TO.P,J4,4,Pin_4*%
%TO.N,/PD7*%
X102500000Y-102040000D03*
%TO.P,J4,5,Pin_5*%
%TO.N,GND*%
X102500000Y-104580000D03*
%TD*%
D13*
%TO.P,J3,1,Pin_1*%
%TO.N,/PD0*%
X195800000Y-94440000D03*
D20*
%TO.P,J3,2,Pin_2*%
%TO.N,/PD1*%
X195800000Y-96980000D03*
%TO.P,J3,3,Pin_3*%
%TO.N,/PD2*%
X195800000Y-99520000D03*
%TO.P,J3,4,Pin_4*%
%TO.N,/PD3*%
X195800000Y-102060000D03*
%TO.P,J3,5,Pin_5*%
%TO.N,GND*%
X195800000Y-104600000D03*
%TD*%
D21*
%TO.P,D16,1,K*%
%TO.N,/DIG7*%
X119570000Y-86070000D03*
D22*
%TO.P,D16,2,A*%
%TO.N,/DP*%
X119570000Y-83530000D03*
%TD*%
D21*
%TO.P,D15,1,K*%
%TO.N,/DIG7*%
X114100000Y-86070000D03*
D22*
%TO.P,D15,2,A*%
%TO.N,/F*%
X114100000Y-83530000D03*
%TD*%
D21*
%TO.P,D14,1,K*%
%TO.N,/DIG7*%
X186100000Y-86100000D03*
D22*
%TO.P,D14,2,A*%
%TO.N,/F*%
X186100000Y-83560000D03*
%TD*%
D21*
%TO.P,D13,1,K*%
%TO.N,/DIG7*%
X180630000Y-86100000D03*
D22*
%TO.P,D13,2,A*%
%TO.N,/E*%
X180630000Y-83560000D03*
%TD*%
D21*
%TO.P,D12,1,K*%
%TO.N,/DIG7*%
X138640000Y-97400000D03*
D22*
%TO.P,D12,2,A*%
%TO.N,/D*%
X136100000Y-97400000D03*
%TD*%
D21*
%TO.P,D11,1,K*%
%TO.N,/DIG7*%
X138640000Y-102870000D03*
D22*
%TO.P,D11,2,A*%
%TO.N,/C*%
X136100000Y-102870000D03*
%TD*%
D21*
%TO.P,D10,1,K*%
%TO.N,/DIG7*%
X147200000Y-111060000D03*
D22*
%TO.P,D10,2,A*%
%TO.N,/B*%
X147200000Y-113600000D03*
%TD*%
D21*
%TO.P,D9,1,K*%
%TO.N,/DIG7*%
X152670000Y-111060000D03*
D22*
%TO.P,D9,2,A*%
%TO.N,/A*%
X152670000Y-113600000D03*
%TD*%
D21*
%TO.P,D8,1,K*%
%TO.N,/DIG6*%
X162500000Y-101500000D03*
D22*
%TO.P,D8,2,A*%
%TO.N,/DP*%
X162500000Y-104040000D03*
%TD*%
D21*
%TO.P,D7,1,K*%
%TO.N,/DIG6*%
X162500000Y-96000000D03*
D22*
%TO.P,D7,2,A*%
%TO.N,/F*%
X162500000Y-98540000D03*
%TD*%
D21*
%TO.P,D6,1,K*%
%TO.N,/DIG6*%
X152500000Y-88470000D03*
D22*
%TO.P,D6,2,A*%
%TO.N,/F*%
X152500000Y-85930000D03*
%TD*%
D21*
%TO.P,D5,1,K*%
%TO.N,/DIG6*%
X147700000Y-88400000D03*
D22*
%TO.P,D5,2,A*%
%TO.N,/E*%
X147700000Y-85860000D03*
%TD*%
D21*
%TO.P,D4,1,K*%
%TO.N,/DIG6*%
X151660000Y-102670000D03*
D22*
%TO.P,D4,2,A*%
%TO.N,/D*%
X154200000Y-102670000D03*
%TD*%
D21*
%TO.P,D3,1,K*%
%TO.N,/DIG6*%
X151660000Y-97200000D03*
D22*
%TO.P,D3,2,A*%
%TO.N,/C*%
X154200000Y-97200000D03*
%TD*%
D21*
%TO.P,D2,1,K*%
%TO.N,/DIG6*%
X145560000Y-102730000D03*
D22*
%TO.P,D2,2,A*%
%TO.N,/B*%
X148100000Y-102730000D03*
%TD*%
D21*
%TO.P,D1,1,K*%
%TO.N,/DIG6*%
X145560000Y-97260000D03*
D22*
%TO.P,D1,2,A*%
%TO.N,/A*%
X148100000Y-97260000D03*
%TD*%
D23*
%TO.N,GND*%
X184980871Y-157050000D03*
%TO.N,+5V*%
X129100000Y-141400000D03*
X136600000Y-136200000D03*
X135200000Y-127300000D03*
X138816502Y-125339967D03*
X125500000Y-145700000D03*
X128300000Y-146600000D03*
X123800000Y-152800000D03*
X123700000Y-154700000D03*
%TO.N,GND*%
X169600000Y-154200000D03*
X181100000Y-153500000D03*
%TO.N,+5V*%
X185900000Y-140200000D03*
%TO.N,GND*%
X149300000Y-146300000D03*
X147617940Y-150974689D03*
%TO.N,/DIG5*%
X146500000Y-143400000D03*
X158839293Y-150251000D03*
%TO.N,/DIG1*%
X191401748Y-155101748D03*
%TO.N,/DIG7*%
X139400000Y-94300000D03*
X136400000Y-92000000D03*
X136000000Y-88900000D03*
X116900000Y-87700000D03*
X167300000Y-107200000D03*
X175500000Y-95400000D03*
X173700000Y-88000000D03*
X167000000Y-110300000D03*
X173489289Y-129550000D03*
X172000000Y-137900000D03*
X178900000Y-141600000D03*
%TO.N,/DIG6*%
X167300000Y-146500000D03*
X162700000Y-145800000D03*
X159500000Y-130300000D03*
X164800000Y-107300000D03*
%TO.N,/F*%
X172900000Y-91800000D03*
%TO.N,/DIG3*%
X120300000Y-113400000D03*
X127800000Y-117200000D03*
X158850000Y-139646831D03*
X168100000Y-139400000D03*
X172700000Y-149450000D03*
%TO.N,/DIG2*%
X163000000Y-148850000D03*
%TO.N,SCK*%
X160000000Y-154600000D03*
%TO.N,MOSI*%
X187500000Y-155700000D03*
%TO.N,MISO*%
X178300000Y-138000000D03*
X151866111Y-145251000D03*
%TO.N,/LOAD*%
X139400000Y-158000000D03*
%TO.N,/PD3*%
X137047700Y-144193761D03*
%TO.N,/D*%
X195150000Y-146896142D03*
X186000000Y-96500000D03*
X180700000Y-95400000D03*
X170700000Y-106400000D03*
X142700000Y-100100000D03*
X142700000Y-97800000D03*
X134700000Y-93100000D03*
X128700000Y-88800000D03*
X116900000Y-88800000D03*
%TO.N,/DP*%
X185500000Y-107200000D03*
X181426500Y-106509278D03*
X175500000Y-106400000D03*
X156100000Y-93600000D03*
X146210000Y-91109620D03*
X140650000Y-86250000D03*
%TO.N,/E*%
X193599004Y-117817091D03*
%TO.N,/DIG0*%
X181049291Y-119912801D03*
%TO.N,/C*%
X126200000Y-96500000D03*
%TD*%
D24*
%TO.N,GND*%
X184650000Y-157050000D02*
X181100000Y-153500000D01*
X184980871Y-157050000D02*
X184650000Y-157050000D01*
%TO.N,MOSI*%
X185400000Y-157800000D02*
X167080000Y-157800000D01*
X187500000Y-155700000D02*
X185400000Y-157800000D01*
%TO.N,/PD1*%
X133180000Y-144326370D02*
X133180000Y-143195000D01*
X135319000Y-146466784D02*
X135319000Y-146465370D01*
X137034216Y-148182000D02*
X135319000Y-146466784D01*
X143777774Y-148526500D02*
X143433274Y-148182000D01*
X142046894Y-148526500D02*
X143777774Y-148526500D01*
X140699000Y-151780606D02*
X140699000Y-149874394D01*
X142046894Y-153128500D02*
X140699000Y-151780606D01*
X143953106Y-153128500D02*
X142046894Y-153128500D01*
X145301000Y-151780606D02*
X143953106Y-153128500D01*
X140699000Y-149874394D02*
X142046894Y-148526500D01*
X146961400Y-151228500D02*
X145301000Y-151228500D01*
X148101000Y-151507521D02*
X147807521Y-151801000D01*
X148101000Y-151366100D02*
X148101000Y-151507521D01*
X145301000Y-151228500D02*
X145301000Y-151780606D01*
X148238600Y-151228500D02*
X148101000Y-151366100D01*
X147099000Y-151366100D02*
X146961400Y-151228500D01*
X152146894Y-151228500D02*
X148238600Y-151228500D01*
X154046894Y-153128500D02*
X152146894Y-151228500D01*
X160394185Y-153128500D02*
X154046894Y-153128500D01*
X162700000Y-155434315D02*
X160394185Y-153128500D01*
X147099000Y-151507521D02*
X147099000Y-151366100D01*
X162034315Y-156100000D02*
X162700000Y-155434315D01*
X159066629Y-156100000D02*
X162034315Y-156100000D01*
X166913315Y-158199000D02*
X156967629Y-158199000D01*
X156967629Y-158199000D02*
X159066629Y-156100000D01*
X166914314Y-158200000D02*
X166913315Y-158199000D01*
X185565685Y-158200000D02*
X166914314Y-158200000D01*
X143433274Y-148182000D02*
X137034216Y-148182000D01*
X185566686Y-158199000D02*
X185565685Y-158200000D01*
X135319000Y-146465370D02*
X133180000Y-144326370D01*
X198299000Y-158199000D02*
X185566686Y-158199000D01*
X198299000Y-90101000D02*
X198299000Y-158199000D01*
X147392479Y-151801000D02*
X147099000Y-151507521D01*
X198298000Y-90100000D02*
X198299000Y-90101000D01*
X193100000Y-90100000D02*
X198298000Y-90100000D01*
X195800000Y-96980000D02*
X193100000Y-94280000D01*
X193100000Y-94280000D02*
X193100000Y-90100000D01*
%TO.N,MOSI*%
X167080000Y-157800000D02*
X160780000Y-151500000D01*
%TO.N,/PD1*%
X147807521Y-151801000D02*
X147392479Y-151801000D01*
%TO.N,/DIG1*%
X191280760Y-155300000D02*
X191401748Y-155179012D01*
X189980000Y-155300000D02*
X191280760Y-155300000D01*
X186180000Y-151500000D02*
X189980000Y-155300000D01*
X191401748Y-155179012D02*
X191401748Y-155101748D01*
%TO.N,/D*%
X195432327Y-146761318D02*
X195337604Y-146856041D01*
X195432327Y-146651567D02*
X195432327Y-146761318D01*
X195416041Y-146595528D02*
X195416041Y-146635281D01*
X195416041Y-146635281D02*
X195432327Y-146651567D01*
X195250873Y-146425726D02*
X195250873Y-146430360D01*
X195117878Y-146292731D02*
X195250873Y-146425726D01*
X195337604Y-146856041D02*
X195324763Y-146856041D01*
X195041046Y-146292731D02*
X195117878Y-146292731D01*
X194833777Y-146500000D02*
X195041046Y-146292731D01*
X190140212Y-146580000D02*
X192379794Y-146580000D01*
X190060212Y-146500000D02*
X190140212Y-146580000D01*
X176100000Y-146500000D02*
X190060212Y-146500000D01*
X192459795Y-146500000D02*
X194833777Y-146500000D01*
X195324763Y-146856041D02*
X195284662Y-146896142D01*
X195250873Y-146430360D02*
X195416041Y-146595528D01*
X192379794Y-146580000D02*
X192459795Y-146500000D01*
X173480000Y-143880000D02*
X176100000Y-146500000D01*
X195284662Y-146896142D02*
X195150000Y-146896142D01*
%TO.N,+5V*%
X136600000Y-136200000D02*
X134500000Y-136200000D01*
X134500000Y-136200000D02*
X129200000Y-141500000D01*
X137160033Y-125339967D02*
X135200000Y-127300000D01*
X138816502Y-125339967D02*
X137160033Y-125339967D01*
X142750000Y-120700000D02*
X155250000Y-120700000D01*
X125500000Y-145675000D02*
X123020000Y-143195000D01*
X125500000Y-145700000D02*
X125500000Y-145675000D01*
%TO.N,/PB0*%
X121274050Y-144296000D02*
X106341000Y-144296000D01*
X121919000Y-143651050D02*
X121274050Y-144296000D01*
X121919000Y-142738950D02*
X121919000Y-143651050D01*
X122563950Y-142094000D02*
X121919000Y-142738950D01*
X123476050Y-142094000D02*
X122563950Y-142094000D01*
X126016050Y-144296000D02*
X124765950Y-144296000D01*
X124765950Y-144296000D02*
X124121000Y-143651050D01*
X124121000Y-143651050D02*
X124121000Y-142738950D01*
X126661000Y-142738950D02*
X126661000Y-143651050D01*
X134899950Y-134500000D02*
X126661000Y-142738950D01*
X144980000Y-134500000D02*
X134899950Y-134500000D01*
X126661000Y-143651050D02*
X126016050Y-144296000D01*
X106341000Y-144296000D02*
X105240000Y-143195000D01*
X124121000Y-142738950D02*
X123476050Y-142094000D01*
%TO.N,+5V*%
X125560000Y-149340000D02*
X128300000Y-146600000D01*
X125560000Y-150815000D02*
X125560000Y-149340000D01*
X123800000Y-152800000D02*
X123800000Y-152575000D01*
X123800000Y-152575000D02*
X125560000Y-150815000D01*
X124787500Y-155687500D02*
X123800000Y-154700000D01*
X147750000Y-155687500D02*
X124787500Y-155687500D01*
%TO.N,GND*%
X156226500Y-149601000D02*
X155000000Y-150827500D01*
X166501000Y-149601000D02*
X156226500Y-149601000D01*
X168400000Y-151500000D02*
X166501000Y-149601000D01*
%TO.N,SCK*%
X159900000Y-154500000D02*
X160000000Y-154600000D01*
X155418394Y-154500000D02*
X159900000Y-154500000D01*
X154446894Y-153528500D02*
X155418394Y-154500000D01*
X153881209Y-153528500D02*
X154446894Y-153528500D01*
X152939208Y-152586500D02*
X153881209Y-153528500D01*
X147293950Y-152586500D02*
X152939208Y-152586500D01*
X146751950Y-153128500D02*
X147293950Y-152586500D01*
X144118792Y-153528500D02*
X144518792Y-153128500D01*
X118113500Y-153528500D02*
X144118792Y-153528500D01*
X115400000Y-150815000D02*
X118113500Y-153528500D01*
%TO.N,/DIG5*%
X161417160Y-150251000D02*
X158839293Y-150251000D01*
X161881000Y-150714840D02*
X161417160Y-150251000D01*
X161881000Y-151618050D02*
X161881000Y-150714840D01*
X162863950Y-152601000D02*
X161881000Y-151618050D01*
X182539000Y-152601000D02*
X162863950Y-152601000D01*
X183640000Y-151500000D02*
X182539000Y-152601000D01*
%TO.N,GND*%
X147274689Y-150974689D02*
X147617940Y-150974689D01*
X147127500Y-150827500D02*
X147274689Y-150974689D01*
X143000000Y-150827500D02*
X147127500Y-150827500D01*
X147925311Y-150974689D02*
X147617940Y-150974689D01*
X148072500Y-150827500D02*
X147925311Y-150974689D01*
X155000000Y-150827500D02*
X148072500Y-150827500D01*
%TO.N,/PD2*%
X131741000Y-142094000D02*
X130640000Y-143195000D01*
X139045160Y-142094000D02*
X131741000Y-142094000D01*
X144277661Y-147326501D02*
X139045160Y-142094000D01*
X152876336Y-148000000D02*
X145123662Y-148000000D01*
X155676661Y-146500000D02*
X154376336Y-146500000D01*
X156476661Y-147300000D02*
X155676661Y-146500000D01*
X156965686Y-147300000D02*
X156476661Y-147300000D01*
X157357976Y-147692290D02*
X156965686Y-147300000D01*
X161799389Y-148000000D02*
X157357976Y-148000000D01*
X157357976Y-148000000D02*
X157357976Y-147692290D01*
X162399389Y-147400000D02*
X161799389Y-148000000D01*
X144450159Y-147326499D02*
X144277661Y-147326501D01*
X167162735Y-148000000D02*
X166562735Y-147400000D01*
X154376336Y-146500000D02*
X152876336Y-148000000D01*
X195065767Y-148000000D02*
X167162735Y-148000000D01*
X196201000Y-146864767D02*
X195065767Y-148000000D01*
X196201000Y-141947744D02*
X196201000Y-146864767D01*
X194649000Y-140395744D02*
X196201000Y-141947744D01*
X195800000Y-99520000D02*
X194649000Y-100671000D01*
X166562735Y-147400000D02*
X162399389Y-147400000D01*
X194649000Y-100671000D02*
X194649000Y-140395744D01*
%TO.N,/PD3*%
X161965075Y-148400000D02*
X156957976Y-148400000D01*
X166997052Y-148400000D02*
X166397052Y-147800000D01*
X196950000Y-146681452D02*
X195231452Y-148400000D01*
X195231452Y-148400000D02*
X166997052Y-148400000D01*
%TO.N,/PD0*%
X135720000Y-146300684D02*
X135720000Y-143195000D01*
X143944874Y-148126500D02*
X143599373Y-147781000D01*
X144118794Y-148126503D02*
X143946301Y-148126505D01*
%TO.N,/PD3*%
X195800000Y-102060000D02*
X196950000Y-103210000D01*
%TO.N,/PD0*%
X153207706Y-148800000D02*
X144792291Y-148800000D01*
X143599373Y-147781000D02*
X137200316Y-147781000D01*
X166831369Y-148800000D02*
X166231369Y-148200000D01*
X155692290Y-147700000D02*
X154307706Y-147700000D01*
X195397137Y-148800000D02*
X166831369Y-148800000D01*
X156792290Y-148800000D02*
X155692290Y-147700000D01*
X197351000Y-146846137D02*
X195397137Y-148800000D01*
%TO.N,/PD2*%
X145123662Y-148000000D02*
X144450159Y-147326499D01*
%TO.N,/PD0*%
X197351000Y-94941000D02*
X197351000Y-146846137D01*
X196850000Y-94440000D02*
X197351000Y-94941000D01*
%TO.N,/PD3*%
X196950000Y-103210000D02*
X196950000Y-146681452D01*
%TO.N,/PD0*%
X195800000Y-94440000D02*
X196850000Y-94440000D01*
%TO.N,/DIG2*%
X166665686Y-149200000D02*
X166315686Y-148850000D01*
X171180000Y-149200000D02*
X166665686Y-149200000D01*
%TO.N,/PD0*%
X162730761Y-148200000D02*
X162130761Y-148800000D01*
%TO.N,/DIG2*%
X173480000Y-151500000D02*
X171180000Y-149200000D01*
X166315686Y-148850000D02*
X163000000Y-148850000D01*
%TO.N,SCK*%
X144518792Y-153128500D02*
X146751950Y-153128500D01*
%TO.N,/PD0*%
X144792291Y-148800000D02*
X144118794Y-148126503D01*
X154307706Y-147700000D02*
X153207706Y-148800000D01*
X166231369Y-148200000D02*
X162730761Y-148200000D01*
%TO.N,/PD3*%
X162565075Y-147800000D02*
X161965075Y-148400000D01*
%TO.N,/PD0*%
X137200316Y-147781000D02*
X135720000Y-146300684D01*
X162130761Y-148800000D02*
X156792290Y-148800000D01*
%TO.N,/PD3*%
X166397052Y-147800000D02*
X162565075Y-147800000D01*
%TO.N,/PD0*%
X143946301Y-148126505D02*
X143946292Y-148126500D01*
X143946292Y-148126500D02*
X143944874Y-148126500D01*
%TO.N,GND*%
X170300000Y-153500000D02*
X169600000Y-154200000D01*
X181100000Y-153500000D02*
X170300000Y-153500000D01*
%TO.N,+5V*%
X184039000Y-133126000D02*
X184039000Y-138339000D01*
X185190000Y-131975000D02*
X184039000Y-133126000D01*
X184039000Y-138339000D02*
X185900000Y-140200000D01*
X183415000Y-130200000D02*
X185190000Y-131975000D01*
X175450000Y-130200000D02*
X183415000Y-130200000D01*
X162950000Y-130200000D02*
X175450000Y-130200000D01*
%TO.N,/DIG7*%
X173269240Y-129550000D02*
X173489289Y-129550000D01*
X171300000Y-127580760D02*
X173269240Y-129550000D01*
X171300000Y-114600000D02*
X171300000Y-127580760D01*
X167000000Y-110300000D02*
X171300000Y-114600000D01*
%TO.N,Net-(U1-ISET)*%
X186180000Y-142748630D02*
X186180000Y-143880000D01*
X174557555Y-133649000D02*
X177080370Y-133649000D01*
X170934314Y-134600000D02*
X173365686Y-134600000D01*
X152600000Y-131350000D02*
X153300000Y-132050000D01*
X174006555Y-134200000D02*
X174557555Y-133649000D01*
X153300000Y-132050000D02*
X168384314Y-132050000D01*
X177080370Y-133649000D02*
X186180000Y-142748630D01*
X173365686Y-134600000D02*
X173765686Y-134200000D01*
X168384314Y-132050000D02*
X170934314Y-134600000D01*
X173765686Y-134200000D02*
X174006555Y-134200000D01*
%TO.N,GND*%
X149450000Y-131350000D02*
X152600000Y-134500000D01*
X144980000Y-131350000D02*
X149450000Y-131350000D01*
X149300000Y-140950000D02*
X152600000Y-137650000D01*
X149300000Y-146300000D02*
X149300000Y-140950000D01*
%TO.N,/PD3*%
X138680000Y-147380000D02*
X137047700Y-145747700D01*
X144110561Y-147726501D02*
X143764060Y-147380000D01*
X144111975Y-147726501D02*
X144110561Y-147726501D01*
X144111981Y-147726503D02*
X144111975Y-147726501D01*
X144957977Y-148400000D02*
X144284477Y-147726501D01*
X143764060Y-147380000D02*
X138680000Y-147380000D01*
X153042021Y-148400000D02*
X144957977Y-148400000D01*
X154442021Y-147000000D02*
X153042021Y-148400000D01*
X137047700Y-145747700D02*
X137047700Y-144193761D01*
X144284477Y-147726501D02*
X144111981Y-147726503D01*
X155557976Y-147000000D02*
X154442021Y-147000000D01*
X156957976Y-148400000D02*
X155557976Y-147000000D01*
X156957976Y-148400000D02*
X156960098Y-148397878D01*
X156960098Y-148397878D02*
X156290720Y-147728500D01*
%TO.N,/DIG3*%
X160653169Y-139646831D02*
X160900000Y-139400000D01*
X158850000Y-139646831D02*
X160653169Y-139646831D01*
X160900000Y-139400000D02*
X168100000Y-139400000D01*
%TO.N,/DIG5*%
X140723128Y-128827500D02*
X132137500Y-128827500D01*
X146500000Y-143400000D02*
X146500000Y-134604372D01*
X146500000Y-134604372D02*
X140723128Y-128827500D01*
%TO.N,/F*%
X191717049Y-144980000D02*
X192817050Y-143880000D01*
X190722959Y-144900002D02*
X190802957Y-144980000D01*
X190722952Y-144900002D02*
X190722959Y-144900002D01*
X190159000Y-144336050D02*
X190722952Y-144900002D01*
X190159000Y-134154412D02*
X190159000Y-144336050D01*
X180687500Y-124682912D02*
X190159000Y-134154412D01*
X180687500Y-120470249D02*
X180687500Y-124682912D01*
X179837500Y-119620249D02*
X180687500Y-120470249D01*
X180687500Y-109582500D02*
X179837500Y-110432500D01*
%TO.N,/DIG0*%
X181049291Y-111760709D02*
X181049291Y-119912801D01*
%TO.N,/F*%
X190802957Y-144980000D02*
X191717049Y-144980000D01*
%TO.N,/DIG0*%
X183227500Y-109582500D02*
X181049291Y-111760709D01*
%TO.N,/DP*%
X181537891Y-106509278D02*
X181426500Y-106509278D01*
X181609073Y-106438096D02*
X181537891Y-106509278D01*
X181796141Y-106233491D02*
X181713751Y-106315881D01*
X182100000Y-105900000D02*
X181796141Y-106203859D01*
%TO.N,/F*%
X192817050Y-143880000D02*
X193800000Y-143880000D01*
%TO.N,/DP*%
X184200000Y-105900000D02*
X182100000Y-105900000D01*
%TO.N,/F*%
X179837500Y-110432500D02*
X179837500Y-119620249D01*
%TO.N,/DP*%
X185500000Y-107200000D02*
X184200000Y-105900000D01*
X181796141Y-106203859D02*
X181796141Y-106233491D01*
X181713751Y-106315881D02*
X181713751Y-106343751D01*
X181713751Y-106343751D02*
X181619406Y-106438096D01*
X181619406Y-106438096D02*
X181609073Y-106438096D01*
%TO.N,/DIG7*%
X139400000Y-94300000D02*
X138640000Y-95060000D01*
X138640000Y-95060000D02*
X138640000Y-97400000D01*
X136000000Y-91700000D02*
X136400000Y-92100000D01*
X136000000Y-88900000D02*
X136000000Y-91700000D01*
X115270000Y-86070000D02*
X116900000Y-87700000D01*
X114100000Y-86070000D02*
X115270000Y-86070000D01*
%TO.N,/DP*%
X141350380Y-86250000D02*
X140650000Y-86250000D01*
X146210000Y-91109620D02*
X141350380Y-86250000D01*
%TO.N,/DIG7*%
X167300000Y-107200000D02*
X167300000Y-110000000D01*
X167300000Y-110000000D02*
X167000000Y-110300000D01*
X173700000Y-93600000D02*
X175500000Y-95400000D01*
X173700000Y-88000000D02*
X173700000Y-93600000D01*
X186100000Y-86100000D02*
X180630000Y-86100000D01*
X175200000Y-137900000D02*
X172000000Y-137900000D01*
X178900000Y-141600000D02*
X175200000Y-137900000D01*
%TO.N,/DIG6*%
X167300000Y-146100000D02*
X167300000Y-146500000D01*
X167000000Y-145800000D02*
X167300000Y-146100000D01*
X162700000Y-145800000D02*
X167000000Y-145800000D01*
%TO.N,/DIG3*%
X173944997Y-150044997D02*
X173350000Y-149450000D01*
X174500000Y-150044997D02*
X173944997Y-150044997D01*
%TO.N,MISO*%
X160323950Y-144981000D02*
X160303950Y-145001000D01*
X159541950Y-144199000D02*
X160323950Y-144981000D01*
X159449000Y-136751000D02*
X152001000Y-144199000D01*
X177051000Y-136751000D02*
X159449000Y-136751000D01*
X178300000Y-138000000D02*
X177051000Y-136751000D01*
X152001000Y-144199000D02*
X159541950Y-144199000D01*
X152116111Y-145001000D02*
X151866111Y-145251000D01*
X160303950Y-145001000D02*
X152116111Y-145001000D01*
%TO.N,/DIG3*%
X173350000Y-149450000D02*
X172700000Y-149450000D01*
%TO.N,/DIG6*%
X164800000Y-125000000D02*
X159500000Y-130300000D01*
X164800000Y-107300000D02*
X164800000Y-125000000D01*
%TO.N,/G*%
X177097500Y-98682500D02*
X178147500Y-98682500D01*
X169715000Y-91300000D02*
X177097500Y-98682500D01*
X146878859Y-91300000D02*
X169715000Y-91300000D01*
X145680761Y-91759620D02*
X146419239Y-91759620D01*
X145221141Y-91300000D02*
X145680761Y-91759620D01*
X139500000Y-91300000D02*
X145221141Y-91300000D01*
X146419239Y-91759620D02*
X146878859Y-91300000D01*
X135400000Y-95400000D02*
X139500000Y-91300000D01*
X134865685Y-95400000D02*
X135400000Y-95400000D01*
X132967158Y-94332842D02*
X133798527Y-94332842D01*
X133798527Y-94332842D02*
X134865685Y-95400000D01*
%TO.N,/DIG6*%
X147770000Y-88470000D02*
X147700000Y-88400000D01*
X152500000Y-88470000D02*
X147770000Y-88470000D01*
%TO.N,/F*%
X167030000Y-85930000D02*
X152500000Y-85930000D01*
X172900000Y-91800000D02*
X167030000Y-85930000D01*
%TO.N,/DIG6*%
X163701000Y-97201000D02*
X162500000Y-96000000D01*
X163701000Y-100299000D02*
X163701000Y-97201000D01*
X162500000Y-101500000D02*
X163701000Y-100299000D01*
%TO.N,/G*%
X118300000Y-105970000D02*
X122152500Y-102117500D01*
X118300000Y-118640000D02*
X118300000Y-105970000D01*
X113180000Y-123760000D02*
X118300000Y-118640000D01*
%TO.N,/DIG3*%
X124100000Y-117200000D02*
X120300000Y-113400000D01*
X127800000Y-117200000D02*
X124100000Y-117200000D01*
%TO.N,/A*%
X122937500Y-109737500D02*
X122152500Y-109737500D01*
X132137500Y-118937500D02*
X122937500Y-109737500D01*
X132137500Y-123747500D02*
X132137500Y-118937500D01*
%TO.N,/DIG3*%
X174500000Y-150044997D02*
X174462646Y-150044997D01*
X176020000Y-151500000D02*
X174564997Y-150044997D01*
X174564997Y-150044997D02*
X174500000Y-150044997D01*
%TO.N,/LOAD*%
X139300000Y-156650000D02*
X139400000Y-156750000D01*
X113615000Y-156650000D02*
X139300000Y-156650000D01*
X107780000Y-150815000D02*
X113615000Y-156650000D01*
X139400000Y-156750000D02*
X139400000Y-158000000D01*
%TO.N,/PB1*%
X106341000Y-149714000D02*
X105240000Y-150815000D01*
X134289950Y-137650000D02*
X129201000Y-142738950D01*
X129201000Y-142738950D02*
X129201000Y-143651050D01*
X144980000Y-137650000D02*
X134289950Y-137650000D01*
X129201000Y-143651050D02*
X123138050Y-149714000D01*
X123138050Y-149714000D02*
X106341000Y-149714000D01*
%TO.N,/C*%
X192949004Y-109144004D02*
X185767500Y-101962500D01*
X192949004Y-141257204D02*
X192949004Y-109144004D01*
X194901000Y-143209200D02*
X192949004Y-141257204D01*
X194901000Y-144336050D02*
X194901000Y-143209200D01*
X193937050Y-145300000D02*
X194901000Y-144336050D01*
X191962735Y-145300000D02*
X193937050Y-145300000D01*
X191882736Y-145380000D02*
X191962735Y-145300000D01*
X190637270Y-145380000D02*
X191882736Y-145380000D01*
X190557274Y-145300002D02*
X190637270Y-145380000D01*
X182520000Y-145300000D02*
X190557274Y-145300002D01*
X181100000Y-143880000D02*
X182520000Y-145300000D01*
%TO.N,/E*%
X193599004Y-140477118D02*
X193599004Y-117817091D01*
X195301000Y-142179115D02*
X193599004Y-140477118D01*
X195301000Y-144501735D02*
X195301000Y-142179115D01*
X194102736Y-145700000D02*
X195301000Y-144501735D01*
X192128423Y-145700000D02*
X194102736Y-145700000D01*
X190471584Y-145780000D02*
X192048422Y-145780000D01*
X190391586Y-145700001D02*
X190471584Y-145780000D01*
X180380000Y-145700000D02*
X190391586Y-145700001D01*
X178560000Y-143880000D02*
X180380000Y-145700000D01*
%TO.N,/DP*%
X178240000Y-146100000D02*
X176020000Y-143880000D01*
X190225898Y-146100000D02*
X178240000Y-146100000D01*
X190305897Y-146180000D02*
X190225898Y-146100000D01*
X192214108Y-146180000D02*
X190305897Y-146180000D01*
X192294108Y-146100000D02*
X192214108Y-146180000D01*
X194268420Y-146100000D02*
X192294108Y-146100000D01*
X195701000Y-144667421D02*
X194268420Y-146100000D01*
X195701000Y-142013430D02*
X195701000Y-144667421D01*
X194249000Y-140561429D02*
X195701000Y-142013430D01*
X194249000Y-107904000D02*
X194249000Y-140561429D01*
X188307500Y-101962500D02*
X194249000Y-107904000D01*
%TO.N,/E*%
X192048422Y-145780000D02*
X192128423Y-145700000D01*
%TO.N,/G*%
X178147500Y-122708598D02*
X188720000Y-133281098D01*
%TO.N,/B*%
X181838500Y-103113500D02*
X180687500Y-101962500D01*
%TO.N,/G*%
X188720000Y-133281098D02*
X188720000Y-143880000D01*
%TO.N,/B*%
X191260000Y-143880000D02*
X191260000Y-110907240D01*
X183466260Y-103113500D02*
X181838500Y-103113500D01*
X191260000Y-110907240D02*
X183466260Y-103113500D01*
%TO.N,/G*%
X178147500Y-109582500D02*
X178147500Y-122708598D01*
%TO.N,/PD4*%
X123865000Y-141500000D02*
X125560000Y-143195000D01*
X119132240Y-141500000D02*
X123865000Y-141500000D01*
X109998000Y-101918000D02*
X109998000Y-132365760D01*
X102500000Y-94420000D02*
X109998000Y-101918000D01*
%TO.N,/D*%
X110398000Y-131138000D02*
X110398000Y-92812000D01*
X113180000Y-133920000D02*
X110398000Y-131138000D01*
X110398000Y-92812000D02*
X111992500Y-91217500D01*
%TO.N,/PD7*%
X107780000Y-122477056D02*
X107780000Y-143195000D01*
X107400000Y-122097056D02*
X107780000Y-122477056D01*
X107400000Y-106940000D02*
X107400000Y-122097056D01*
%TO.N,/PD4*%
X109998000Y-132365760D02*
X119132240Y-141500000D01*
%TO.N,/PD7*%
X102500000Y-102040000D02*
X107400000Y-106940000D01*
%TO.N,/PD6*%
X108181000Y-122312370D02*
X108181000Y-141056000D01*
X108100000Y-122231371D02*
X108181000Y-122312370D01*
X108100000Y-105100000D02*
X108100000Y-122231371D01*
X102500000Y-99500000D02*
X108100000Y-105100000D01*
%TO.N,/PD5*%
X108582000Y-138917000D02*
X112860000Y-143195000D01*
X102500000Y-96960000D02*
X108500000Y-102960000D01*
X108500000Y-122065685D02*
X108582000Y-122147685D01*
X108582000Y-122147685D02*
X108582000Y-138917000D01*
X108500000Y-102960000D02*
X108500000Y-122065685D01*
%TO.N,/PD6*%
X108181000Y-141056000D02*
X110320000Y-143195000D01*
%TO.N,/D*%
X184900000Y-95400000D02*
X186000000Y-96500000D01*
X180700000Y-95400000D02*
X184900000Y-95400000D01*
%TO.N,/DIG1*%
X182282500Y-98682500D02*
X183227500Y-98682500D01*
X181838500Y-98238500D02*
X182282500Y-98682500D01*
X181131500Y-97531500D02*
X181164260Y-97531500D01*
X181164260Y-97531500D02*
X181838500Y-98205740D01*
X179800000Y-94490000D02*
X179800000Y-96200000D01*
X179800000Y-96200000D02*
X181131500Y-97531500D01*
X181838500Y-98205740D02*
X181838500Y-98238500D01*
X183227500Y-91062500D02*
X179800000Y-94490000D01*
%TO.N,/F*%
X179698500Y-97693500D02*
X180687500Y-98682500D01*
X179698500Y-97365815D02*
X179698500Y-97693500D01*
X179464185Y-97131500D02*
X179698500Y-97365815D01*
X179136500Y-97131500D02*
X179464185Y-97131500D01*
X177800000Y-95795000D02*
X179136500Y-97131500D01*
X179536500Y-92936500D02*
X177800000Y-94673000D01*
X179536500Y-90823740D02*
X179536500Y-92936500D01*
X177800000Y-94673000D02*
X177800000Y-95795000D01*
X174642760Y-85930000D02*
X179536500Y-90823740D01*
X152500000Y-85930000D02*
X174642760Y-85930000D01*
%TO.N,/A*%
X180100000Y-100010000D02*
X178147500Y-101962500D01*
X180100000Y-99722760D02*
X180100000Y-100010000D01*
X179536500Y-99159260D02*
X180100000Y-99722760D01*
X179536500Y-98205740D02*
X179536500Y-99159260D01*
X179298500Y-97967740D02*
X179536500Y-98205740D01*
X178862260Y-97531500D02*
X179298500Y-97531500D01*
X177400000Y-94507315D02*
X177400000Y-96069240D01*
X178500000Y-93407314D02*
X177400000Y-94507315D01*
X178500000Y-92465686D02*
X178500000Y-93407314D01*
X178182919Y-92300000D02*
X178334314Y-92300000D01*
X178147500Y-92264581D02*
X178182919Y-92300000D01*
X179298500Y-97531500D02*
X179298500Y-97967740D01*
X177400000Y-96069240D02*
X178862260Y-97531500D01*
X178147500Y-91062500D02*
X178147500Y-92264581D01*
X178334314Y-92300000D02*
X178500000Y-92465686D01*
%TO.N,/D*%
X170600000Y-106500000D02*
X170700000Y-106400000D01*
X158030000Y-106500000D02*
X170600000Y-106500000D01*
X154200000Y-102670000D02*
X158030000Y-106500000D01*
X151630000Y-100100000D02*
X154200000Y-102670000D01*
X142700000Y-100100000D02*
X151630000Y-100100000D01*
X142700000Y-97800000D02*
X142700000Y-100000000D01*
%TO.N,/C*%
X151000000Y-94000000D02*
X144970000Y-94000000D01*
X144970000Y-94000000D02*
X136100000Y-102870000D01*
X154200000Y-97200000D02*
X151000000Y-94000000D01*
%TO.N,/D*%
X134700000Y-93100000D02*
X134900000Y-93100000D01*
%TO.N,/G*%
X132967158Y-94332842D02*
X133000000Y-94365685D01*
%TO.N,/D*%
X133000000Y-93100000D02*
X134700000Y-93100000D01*
X128700000Y-88800000D02*
X133000000Y-93100000D01*
%TO.N,/G*%
X129851815Y-91217500D02*
X132967158Y-94332842D01*
X122152500Y-91217500D02*
X129851815Y-91217500D01*
%TO.N,/D*%
X114410000Y-88800000D02*
X116900000Y-88800000D01*
X111992500Y-91217500D02*
X114410000Y-88800000D01*
X113143500Y-92368500D02*
X111992500Y-91217500D01*
X113143500Y-99314260D02*
X113143500Y-92368500D01*
X111992500Y-100465260D02*
X113143500Y-99314260D01*
X111992500Y-102117500D02*
X111992500Y-100465260D01*
%TO.N,/DP*%
X189458500Y-100811500D02*
X188307500Y-101962500D01*
X189458500Y-92213500D02*
X189458500Y-100811500D01*
X188307500Y-91062500D02*
X189458500Y-92213500D01*
X173140000Y-104040000D02*
X175500000Y-106400000D01*
X162500000Y-104040000D02*
X173140000Y-104040000D01*
X156100000Y-97640000D02*
X162500000Y-104040000D01*
X156100000Y-93600000D02*
X156100000Y-97640000D01*
X110841500Y-99988500D02*
X111992500Y-98837500D01*
X110841500Y-108586500D02*
X110841500Y-99988500D01*
X111992500Y-109737500D02*
X110841500Y-108586500D01*
X111229000Y-110501000D02*
X111992500Y-109737500D01*
X111229000Y-131056760D02*
X111229000Y-110501000D01*
X112703240Y-132531000D02*
X111229000Y-131056760D01*
X113531000Y-132531000D02*
X112703240Y-132531000D01*
X114920000Y-133920000D02*
X113531000Y-132531000D01*
X120800000Y-133920000D02*
X114920000Y-133920000D01*
%TO.N,/C*%
X117109000Y-127689000D02*
X120800000Y-131380000D01*
X111629000Y-126614760D02*
X112703240Y-127689000D01*
X112703240Y-127689000D02*
X117109000Y-127689000D01*
X114532500Y-109737500D02*
X111629000Y-112641000D01*
X111629000Y-112641000D02*
X111629000Y-126614760D01*
%TO.N,/DP*%
X124040740Y-132756500D02*
X130986500Y-132756500D01*
X130986500Y-132756500D02*
X132137500Y-133907500D01*
X122877240Y-133920000D02*
X124040740Y-132756500D01*
X120800000Y-133920000D02*
X122877240Y-133920000D01*
%TO.N,/D*%
X123354000Y-135071000D02*
X124517500Y-133907500D01*
X114331000Y-135071000D02*
X123354000Y-135071000D01*
X113180000Y-133920000D02*
X114331000Y-135071000D01*
%TO.N,/E*%
X123116000Y-132769000D02*
X124517500Y-131367500D01*
X114569000Y-132769000D02*
X123116000Y-132769000D01*
X113180000Y-131380000D02*
X114569000Y-132769000D01*
%TO.N,/DIG2*%
X117072500Y-91217500D02*
X117072500Y-98837500D01*
%TO.N,/DIG5*%
X132137500Y-128827500D02*
X124517500Y-128827500D01*
%TO.N,/C*%
X130986500Y-130216500D02*
X132137500Y-131367500D01*
X121963500Y-130216500D02*
X130986500Y-130216500D01*
X120800000Y-131380000D02*
X121963500Y-130216500D01*
X113381500Y-99988500D02*
X113381500Y-108586500D01*
X113381500Y-108586500D02*
X114532500Y-109737500D01*
X114532500Y-98837500D02*
X113381500Y-99988500D01*
X136100000Y-102870000D02*
X132570000Y-102870000D01*
X132570000Y-102870000D02*
X126200000Y-96500000D01*
X187156500Y-100573500D02*
X187156500Y-92451500D01*
X185767500Y-101962500D02*
X187156500Y-100573500D01*
X187156500Y-92451500D02*
X185767500Y-91062500D01*
%TO.N,/B*%
X148401000Y-103031000D02*
X148100000Y-102730000D01*
X148401000Y-112399000D02*
X148401000Y-103031000D01*
X147200000Y-113600000D02*
X148401000Y-112399000D01*
X144825000Y-113600000D02*
X147200000Y-113600000D01*
X132137500Y-126287500D02*
X144825000Y-113600000D01*
X130986500Y-127438500D02*
X132137500Y-126287500D01*
X121938500Y-127438500D02*
X130986500Y-127438500D01*
X120800000Y-126300000D02*
X121938500Y-127438500D01*
%TO.N,/F*%
X123315419Y-126287500D02*
X124517500Y-126287500D01*
X122176919Y-125149000D02*
X123315419Y-126287500D01*
X113180000Y-126300000D02*
X114331000Y-125149000D01*
X114331000Y-125149000D02*
X122176919Y-125149000D01*
%TO.N,/A*%
X122342605Y-124749000D02*
X122492104Y-124898500D01*
X130986500Y-124898500D02*
X132137500Y-123747500D01*
X121789000Y-124749000D02*
X122342605Y-124749000D01*
X120800000Y-123760000D02*
X121789000Y-124749000D01*
X122492104Y-124898500D02*
X130986500Y-124898500D01*
%TO.N,/F*%
X115921500Y-118716500D02*
X112029000Y-122609000D01*
X112029000Y-122609000D02*
X112029000Y-125149000D01*
X115921500Y-105808500D02*
X115921500Y-118716500D01*
X119612500Y-102117500D02*
X115921500Y-105808500D01*
X112029000Y-125149000D02*
X113180000Y-126300000D01*
X179536500Y-108431500D02*
X180687500Y-109582500D01*
X179536500Y-101463500D02*
X179536500Y-108431500D01*
X180687500Y-100312500D02*
X179536500Y-101463500D01*
X180687500Y-98682500D02*
X180687500Y-100312500D01*
X148899000Y-82329000D02*
X152500000Y-85930000D01*
X115301000Y-82329000D02*
X148899000Y-82329000D01*
X114100000Y-83530000D02*
X115301000Y-82329000D01*
X119612500Y-89042500D02*
X114100000Y-83530000D01*
X119612500Y-91217500D02*
X119612500Y-89042500D01*
X120763500Y-92368500D02*
X119612500Y-91217500D01*
X120763500Y-100966500D02*
X120763500Y-92368500D01*
X119612500Y-102117500D02*
X120763500Y-100966500D01*
%TO.N,/G*%
X176996500Y-108431500D02*
X178147500Y-109582500D01*
X178147500Y-98682500D02*
X176996500Y-99833500D01*
X176996500Y-99833500D02*
X176996500Y-108431500D01*
X123303500Y-92368500D02*
X122152500Y-91217500D01*
X123303500Y-100966500D02*
X123303500Y-92368500D01*
X122152500Y-102117500D02*
X123303500Y-100966500D01*
X123379000Y-122609000D02*
X124517500Y-123747500D01*
X114331000Y-122609000D02*
X123379000Y-122609000D01*
X113180000Y-123760000D02*
X114331000Y-122609000D01*
%TD*%
M02*
